<svg width="156" height="40" viewBox="0 0 156 40" fill="none" xmlns="http://www.w3.org/2000/svg">
<path d="M46.5875 12.5875H50.3375V27.75H46.5875V12.5875ZM51.825 22.025C51.825 18.275 54.125 16.0375 57.675 16.0375C61.225 16.0375 63.525 18.275 63.525 22.025C63.525 25.775 61.275 28.025 57.675 28.025C54.075 28.025 51.825 25.8375 51.825 22.025ZM59.7625 22.025C59.7625 19.9625 58.95 18.75 57.675 18.75C56.4 18.75 55.6 20 55.6 22.025C55.6 24.05 56.3875 25.275 57.675 25.275C58.9625 25.275 59.7625 24.125 59.7625 22.0375V22.025ZM64.9375 28.4875H68.5375C68.7089 28.8681 68.9985 29.1832 69.3634 29.386C69.7282 29.5886 70.1489 29.6681 70.5625 29.6125C71.9875 29.6125 72.7375 28.8375 72.7375 27.7125V25.6125H72.6625C72.3637 26.2561 71.8789 26.7954 71.2706 27.1609C70.6624 27.5262 69.9585 27.701 69.25 27.6625C66.5125 27.6625 64.7 25.575 64.7 21.9875C64.7 18.4 66.425 16.1375 69.3 16.1375C70.0307 16.1089 70.7527 16.3042 71.3694 16.6974C71.986 17.0906 72.4677 17.6629 72.75 18.3375V16.25H76.5V27.625C76.5 30.3625 74.0875 32.0625 70.525 32.0625C67.2125 32.0625 65.15 30.575 64.9375 28.5V28.4875ZM72.75 22.0125C72.75 20.1875 71.9125 19.0375 70.5875 19.0375C69.2625 19.0375 68.45 20.175 68.45 22.0125C68.45 23.85 69.25 24.8875 70.5875 24.8875C71.925 24.8875 72.75 23.875 72.75 22.025V22.0125ZM77.9125 22.0125C77.9125 18.2625 80.2125 16.025 83.7625 16.025C87.3125 16.025 89.625 18.2625 89.625 22.0125C89.625 25.7625 87.375 28.0125 83.7625 28.0125C80.15 28.0125 77.9125 25.8375 77.9125 22.025V22.0125ZM85.85 22.0125C85.85 19.95 85.0375 18.7375 83.7625 18.7375C82.4875 18.7375 81.75 20 81.75 22.0375C81.75 24.075 82.5375 25.2875 83.8125 25.2875C85.0875 25.2875 85.85 24.125 85.85 22.0375V22.0125ZM91.05 13.525C91.0401 13.1464 91.143 12.7734 91.3454 12.4532C91.5479 12.1331 91.8408 11.8803 92.187 11.7269C92.5333 11.5734 92.9172 11.5262 93.2904 11.5913C93.6635 11.6564 94.0089 11.8308 94.2827 12.0923C94.5567 12.3539 94.7467 12.691 94.8289 13.0607C94.911 13.4305 94.8815 13.8162 94.744 14.1692C94.6066 14.5221 94.3675 14.8264 94.057 15.0432C93.7466 15.2601 93.3786 15.38 93 15.3875C92.749 15.4047 92.4971 15.3699 92.2603 15.2851C92.0233 15.2004 91.8065 15.0676 91.6234 14.895C91.4402 14.7225 91.2947 14.5139 91.1961 14.2824C91.0974 14.051 91.0476 13.8016 91.05 13.55V13.525ZM91.05 16.275H94.8V27.75H91.05V16.275ZM108.413 22.0125C108.413 25.7625 106.75 27.9 103.9 27.9C103.169 27.9469 102.442 27.7682 101.816 27.3882C101.19 27.0081 100.695 26.445 100.4 25.775H100.325V31.425H96.575V16.25H100.325V18.3H100.4C100.682 17.6189 101.167 17.0411 101.788 16.6452C102.41 16.2494 103.139 16.0546 103.875 16.0875C106.75 16.1375 108.463 18.2875 108.463 22.0375L108.413 22.0125ZM104.663 22.0125C104.663 20.1875 103.825 19.025 102.513 19.025C101.2 19.025 100.362 20.2 100.35 22.0125C100.337 23.825 101.2 24.9875 102.513 24.9875C103.825 24.9875 104.663 23.85 104.663 22.0375V22.0125ZM114.85 16.0125C117.963 16.0125 119.85 17.4875 119.938 19.85H116.525C116.525 19.0375 115.85 18.525 114.812 18.525C113.775 18.525 113.313 18.925 113.313 19.5125C113.313 20.1 113.725 20.2875 114.563 20.4625L116.962 20.95C119.25 21.4375 120.225 22.3625 120.225 24.1C120.225 26.475 118.063 28 114.875 28C111.688 28 109.6 26.475 109.438 24.1375H113.05C113.163 24.9875 113.838 25.4875 114.938 25.4875C116.038 25.4875 116.538 25.125 116.538 24.525C116.538 23.925 116.188 23.8 115.288 23.6125L113.125 23.15C110.887 22.6875 109.713 21.5 109.713 19.75C109.738 17.5 111.75 16.0375 114.85 16.0375V16.0125ZM132.737 27.725H129.125V25.5875H129.05C128.851 26.3051 128.414 26.9332 127.809 27.3676C127.204 27.8019 126.469 28.0162 125.725 27.975C125.155 28.0074 124.585 27.9171 124.053 27.7102C123.521 27.5034 123.04 27.1849 122.642 26.776C122.244 26.3672 121.938 25.8776 121.746 25.3405C121.553 24.8034 121.478 24.2311 121.525 23.6625V16.25H125.275V22.8C125.275 24.1625 125.975 24.8875 127.138 24.8875C127.41 24.888 127.68 24.8304 127.929 24.7182C128.176 24.6061 128.399 24.4421 128.579 24.2374C128.758 24.0325 128.892 23.7916 128.971 23.5309C129.05 23.27 129.074 22.9952 129.038 22.725V16.25H132.788L132.737 27.725ZM134.55 16.25H138.175V18.4625H138.25C138.449 17.7544 138.878 17.1321 139.468 16.6934C140.058 16.2546 140.778 16.0239 141.513 16.0375C142.261 15.9776 143.004 16.2015 143.595 16.6647C144.185 17.128 144.58 17.7965 144.7 18.5375H144.775C145.001 17.7886 145.471 17.1366 146.11 16.684C146.747 16.2314 147.519 16.0039 148.3 16.0375C148.81 16.0204 149.317 16.1107 149.79 16.3027C150.264 16.4946 150.69 16.784 151.044 17.1517C151.398 17.5196 151.67 17.9577 151.844 18.4376C152.016 18.9175 152.087 19.4286 152.05 19.9375V27.75H148.3V20.9375C148.3 19.6875 147.738 19.1125 146.688 19.1125C146.454 19.1105 146.221 19.1587 146.007 19.254C145.794 19.3492 145.603 19.4892 145.448 19.6646C145.293 19.84 145.176 20.0465 145.107 20.2704C145.039 20.4944 145.02 20.7304 145.05 20.9625V27.75H141.488V20.8875C141.488 19.7375 140.925 19.1125 139.9 19.1125C139.664 19.1126 139.429 19.1629 139.214 19.26C138.998 19.3572 138.804 19.4991 138.647 19.6762C138.49 19.8534 138.373 20.0619 138.301 20.288C138.231 20.514 138.209 20.7524 138.238 20.9875V27.75H134.488L134.55 16.25Z" fill="#1D262B"/>
<path d="M36.1 13.275C35.4639 11.8204 34.622 10.4649 33.6 9.24999C32.0894 7.40041 30.2041 5.89172 28.0684 4.82324C25.9326 3.75476 23.5947 3.1507 21.2087 3.05081C18.8227 2.95093 16.4426 3.35747 14.225 4.24372C12.0075 5.12996 10.0027 6.4758 8.34275 8.19265C6.68277 9.90949 5.40521 11.9584 4.59415 14.2046C3.78308 16.4507 3.4569 18.8432 3.63707 21.2245C3.81726 23.6059 4.4997 25.922 5.6395 28.0205C6.7793 30.1191 8.35061 31.9525 10.25 33.4C11.4688 34.3474 12.8154 35.1175 14.25 35.6875C16.2612 36.5117 18.4139 36.9362 20.5875 36.9375C25.0742 36.9276 29.374 35.1391 32.5444 31.9641C35.7146 28.7891 37.4967 24.4867 37.5 20C37.5032 17.6856 37.0266 15.3957 36.1 13.275ZM20.575 6.48748C22.527 6.48728 24.4554 6.9139 26.225 7.73748C25.7935 7.92394 25.3397 8.05417 24.875 8.12499C23.3457 8.34635 21.9291 9.05633 20.8365 10.149C19.7439 11.2416 19.0339 12.6582 18.8125 14.1875C18.7154 15.0451 18.3252 15.843 17.7081 16.4465C17.091 17.05 16.2846 17.422 15.425 17.5C13.8957 17.7214 12.4791 18.4314 11.3865 19.524C10.2939 20.6166 9.58387 22.0332 9.36251 23.5625C9.28756 24.378 8.93962 25.1444 8.37501 25.7375C7.40082 23.6791 6.9632 21.4076 7.10285 19.1346C7.2425 16.8616 7.95488 14.6609 9.17372 12.7371C10.3925 10.8135 12.0782 9.22937 14.0739 8.13229C16.0695 7.0352 18.3102 6.46079 20.5875 6.46248L20.575 6.48748ZM10.2375 28.75C10.3875 28.6125 10.5375 28.4875 10.6875 28.3375C11.7996 27.2594 12.5134 25.8361 12.7125 24.3C12.7932 23.4365 13.1787 22.63 13.8 22.025C14.3979 21.4027 15.2025 21.0204 16.0625 20.95C17.5917 20.7286 19.0084 20.0186 20.101 18.926C21.1936 17.8334 21.9036 16.4167 22.125 14.8875C22.1791 13.9844 22.5666 13.1335 23.2125 12.5C23.8251 11.8898 24.6374 11.5214 25.5 11.4625C26.9049 11.2692 28.2151 10.6446 29.25 9.67499C30.4284 10.6526 31.4266 11.8286 32.2 13.15C32.1525 13.2141 32.098 13.2729 32.0375 13.325C31.4409 13.9527 30.6372 14.3435 29.775 14.425C28.2441 14.6425 26.8254 15.3512 25.732 16.4445C24.6387 17.5379 23.93 18.9566 23.7125 20.4875C23.6244 21.348 23.2415 22.1516 22.6287 22.7621C22.0159 23.3727 21.2109 23.7526 20.35 23.8375C18.8162 24.0571 17.3944 24.7657 16.2954 25.8579C15.1965 26.9501 14.4791 28.3676 14.25 29.9C14.1827 30.5109 13.9729 31.0975 13.6375 31.6125C12.355 30.851 11.2064 29.884 10.2375 28.75ZM20.575 33.575C19.3066 33.5764 18.0442 33.3996 16.825 33.05C17.2421 32.2725 17.5132 31.4251 17.625 30.55C17.7126 29.6914 18.0937 28.8892 18.704 28.279C19.3142 27.6687 20.1164 27.2876 20.975 27.2C22.5065 26.9811 23.926 26.2722 25.0211 25.1794C26.1161 24.0866 26.828 22.6685 27.05 21.1375C27.1376 20.2789 27.5187 19.4767 28.129 18.8665C28.7392 18.2562 29.5414 17.8751 30.4 17.7875C31.5525 17.6376 32.651 17.2085 33.6 16.5375C34.127 18.5349 34.1894 20.6264 33.7825 22.6516C33.3756 24.6769 32.5101 26.5821 31.2526 28.221C29.9951 29.8597 28.379 31.1889 26.528 32.1061C24.6771 33.0234 22.6407 33.5045 20.575 33.5125V33.575Z" fill="#1D262B"/>
</svg>
