<svg width="158" height="40" viewBox="0 0 158 40" fill="none" xmlns="http://www.w3.org/2000/svg">
<path d="M18.3529 7.82355V2.82355H2.58823V37.1765H18.3529V32.1765C15.1235 32.1765 12.0264 30.8936 9.74287 28.61C7.45934 26.3265 6.17647 23.2294 6.17647 20C6.17647 16.7706 7.45934 13.6734 9.74287 11.39C12.0264 9.10643 15.1235 7.82355 18.3529 7.82355Z" fill="#1D262B"/>
<path d="M18.3529 7.82355V32.1765C21.5823 32.1765 24.6795 30.8936 26.9631 28.61C29.2466 26.3265 30.5294 23.2294 30.5294 20C30.5294 16.7706 29.2466 13.6734 26.9631 11.39C24.6795 9.10643 21.5823 7.82355 18.3529 7.82355Z" fill="#1D262B"/>
<path d="M39.3765 10.8823H42.9059V27.8823H39.3765V10.8823Z" fill="#1D262B"/>
<path d="M44.8824 22.0588C44.8824 20.8358 45.2455 19.6403 45.9258 18.6238C46.606 17.6073 47.5727 16.8157 48.7034 16.3492C49.8341 15.8828 51.0778 15.7626 52.2768 16.0038C53.4759 16.245 54.5763 16.8367 55.4387 17.704C56.3011 18.5714 56.8866 19.6752 57.1209 20.8757C57.3552 22.0761 57.2279 23.3191 56.7549 24.4471C56.282 25.575 55.4849 26.5372 54.4646 27.2116C53.4442 27.886 52.2466 28.2423 51.0235 28.2353C50.2124 28.2417 49.408 28.086 48.6578 27.7773C47.9075 27.4687 47.2264 27.0134 46.6544 26.4383C46.0824 25.863 45.6311 25.1792 45.3267 24.4272C45.0225 23.6752 44.8714 22.87 44.8824 22.0588ZM53.7294 22.0588C53.7155 21.5316 53.5465 21.02 53.2434 20.5884C52.9403 20.1566 52.5168 19.8238 52.0255 19.6316C51.5344 19.4393 50.9974 19.3961 50.4819 19.5076C49.9662 19.6188 49.4949 19.8797 49.1268 20.2576C48.7587 20.6353 48.5101 21.1132 48.4122 21.6316C48.3144 22.1499 48.3714 22.6856 48.5764 23.1716C48.7813 23.6576 49.1249 24.0725 49.5645 24.3641C50.0039 24.6559 50.5195 24.8116 51.0471 24.8118C51.4062 24.8188 51.7629 24.7517 52.0949 24.6145C52.4269 24.4774 52.7271 24.2733 52.9766 24.015C53.2261 23.7566 53.4196 23.4494 53.5452 23.113C53.6707 22.7764 53.7254 22.4176 53.7059 22.0588H53.7294Z" fill="#1D262B"/>
<path d="M71.1294 16.2353V27.3059C71.1294 31.2118 68.0706 32.8706 64.9765 32.8706C63.8851 32.9601 62.7903 32.7433 61.8156 32.2445C60.8408 31.7457 60.0246 30.9846 59.4588 30.0471L62.4353 28.3294C62.6765 28.8158 63.0601 29.217 63.5352 29.4797C64.0102 29.7424 64.554 29.8541 65.0941 29.8C65.4382 29.8424 65.7874 29.8083 66.1167 29.7C66.4461 29.5917 66.7474 29.412 66.9992 29.1737C67.2511 28.9353 67.4471 28.6444 67.5733 28.3214C67.6995 27.9986 67.7528 27.6518 67.7294 27.3059V26.2353C67.3187 26.7333 66.7975 27.1286 66.2074 27.39C65.6172 27.6514 64.9742 27.7717 64.3294 27.7412C62.7693 27.7412 61.2732 27.1214 60.17 26.0183C59.0668 24.9152 58.4471 23.419 58.4471 21.8588C58.4471 20.2987 59.0668 18.8026 60.17 17.6994C61.2732 16.5963 62.7693 15.9765 64.3294 15.9765C64.9742 15.946 65.6172 16.0663 66.2074 16.3277C66.7975 16.5891 67.3187 16.9844 67.7294 17.4824V16.3059L71.1294 16.2353ZM67.7294 21.8236C67.7528 21.2607 67.6074 20.7037 67.3118 20.2241C67.0161 19.7446 66.5839 19.3645 66.0704 19.1326C65.5569 18.9007 64.986 18.8278 64.4307 18.9231C63.8755 19.0184 63.3614 19.2776 62.9547 19.6673C62.548 20.0571 62.2672 20.5597 62.1484 21.1104C62.0295 21.6611 62.0781 22.2346 62.2879 22.7574C62.4978 23.2803 62.8592 23.7284 63.3256 24.0441C63.7922 24.3599 64.3426 24.529 64.9059 24.5294C65.2735 24.5559 65.6426 24.505 65.9892 24.38C66.3359 24.255 66.6526 24.0586 66.9186 23.8036C67.1847 23.5486 67.3943 23.2406 67.534 22.8996C67.6736 22.5585 67.7402 22.1919 67.7294 21.8236Z" fill="#1D262B"/>
<path d="M73.1177 22.0588C73.1177 20.8367 73.4802 19.6421 74.1594 18.6261C74.8386 17.6101 75.8039 16.8185 76.9332 16.3514C78.0625 15.8842 79.3049 15.7626 80.5034 16.0019C81.7019 16.2412 82.8024 16.8306 83.6658 17.6955C84.5291 18.5606 85.1164 19.6622 85.3533 20.8611C85.5904 22.06 85.4664 23.3022 84.9971 24.4306C84.5278 25.5591 83.7342 26.5228 82.7171 27.2001C81.6998 27.8774 80.5045 28.2376 79.2824 28.2353C78.4696 28.2432 77.6634 28.0887 76.9112 27.7809C76.1589 27.4732 75.4757 27.0183 74.9015 26.4431C74.3273 25.8678 73.8738 25.1836 73.5674 24.4308C73.2612 23.678 73.1082 22.8715 73.1177 22.0588ZM81.9647 22.0588C81.9508 21.5311 81.7814 21.0191 81.4779 20.5871C81.1744 20.1552 80.75 19.8223 80.2581 19.6305C79.7662 19.4386 79.2287 19.3961 78.7128 19.5085C78.1969 19.6207 77.7257 19.8828 77.358 20.2618C76.9904 20.6407 76.7427 21.1198 76.6462 21.6388C76.5496 22.1579 76.6084 22.6939 76.8151 23.1796C77.0218 23.6655 77.3673 24.0795 77.8084 24.3699C78.2493 24.6601 78.7661 24.8139 79.2941 24.8118C79.6533 24.8188 80.01 24.7516 80.342 24.6145C80.674 24.4774 80.9741 24.2733 81.2236 24.0149C81.4732 23.7566 81.6667 23.4494 81.7922 23.1129C81.9178 22.7763 81.9725 22.4175 81.9529 22.0588H81.9647Z" fill="#1D262B"/>
<path d="M87.0824 13.1176C87.0824 12.7035 87.2052 12.2986 87.4353 11.9542C87.6654 11.6098 87.9925 11.3414 88.3751 11.1829C88.7578 11.0244 89.1788 10.9829 89.5851 11.0637C89.9912 11.1445 90.3644 11.344 90.6573 11.6369C90.9501 11.9297 91.1495 12.3029 91.2304 12.709C91.3112 13.1153 91.2697 13.5363 91.1112 13.919C90.9527 14.3016 90.6842 14.6287 90.3399 14.8588C89.9955 15.0889 89.5907 15.2117 89.1765 15.2117C88.6229 15.2056 88.0939 14.983 87.7025 14.5916C87.3111 14.2002 87.0885 13.6711 87.0824 13.1176ZM87.4235 16.2353H90.9529V27.8823H87.4235V16.2353Z" fill="#1D262B"/>
<path d="M106.059 22.0588C106.098 22.8334 105.984 23.6082 105.723 24.3386C105.462 25.0689 105.059 25.7405 104.538 26.3145C104.016 26.8886 103.386 27.3538 102.684 27.6834C101.982 28.0131 101.222 28.2006 100.447 28.2353C99.7895 28.2791 99.1306 28.1738 98.5195 27.9273C97.9084 27.6807 97.3608 27.2994 96.9177 26.8118V32.5647H93.3882V16.2353H96.9177V17.3294C97.3614 16.8432 97.9094 16.4636 98.5206 16.2192C99.1318 15.9746 99.7904 15.8715 100.447 15.9176C101.219 15.9523 101.976 16.1388 102.676 16.4662C103.375 16.7936 104.004 17.2558 104.525 17.826C105.046 18.3962 105.45 19.0635 105.713 19.7899C105.976 20.5161 106.094 21.2871 106.059 22.0588ZM102.529 22.0588C102.516 21.5123 102.341 20.9822 102.027 20.5348C101.713 20.0874 101.274 19.7425 100.765 19.5435C100.256 19.3445 99.6992 19.3002 99.1649 19.4161C98.6308 19.532 98.1428 19.8031 97.762 20.1952C97.3812 20.5873 97.1246 21.0831 97.0245 21.6205C96.9242 22.1578 96.9848 22.7127 97.1987 23.2158C97.4126 23.7187 97.7701 24.1474 98.2266 24.4481C98.6831 24.7488 99.2181 24.908 99.7647 24.9059C100.139 24.9218 100.513 24.8583 100.861 24.7198C101.209 24.5812 101.524 24.3706 101.785 24.1018C102.046 23.8329 102.247 23.5119 102.376 23.1599C102.504 22.8078 102.556 22.4326 102.529 22.0588Z" fill="#1D262B"/>
<path d="M116.8 24.3882C116.8 27.0706 114.447 28.2118 111.953 28.2118C110.936 28.3033 109.914 28.0877 109.021 27.5927C108.128 27.0978 107.403 26.3462 106.941 25.4353L109.976 23.7177C110.097 24.1374 110.357 24.5032 110.715 24.7538C111.073 25.0044 111.506 25.1245 111.941 25.0941C112.776 25.0941 113.2 24.8353 113.2 24.3647C113.2 23.0824 107.471 23.7647 107.471 19.7294C107.471 17.1882 109.612 15.9177 112.035 15.9177C112.956 15.8764 113.872 16.0854 114.684 16.5225C115.496 16.9595 116.174 17.6084 116.647 18.4L113.612 20C113.478 19.6965 113.259 19.4384 112.981 19.2567C112.703 19.0751 112.379 18.9778 112.047 18.9765C111.435 18.9765 111.071 19.2118 111.071 19.6235C111.071 20.9647 116.8 20.0824 116.8 24.3882Z" fill="#1D262B"/>
<path d="M129.588 16.2353V27.8824H126.059V26.7882C125.658 27.2726 125.148 27.6558 124.573 27.9072C123.996 28.1586 123.369 28.2709 122.741 28.2353C120.388 28.2353 118.376 26.5529 118.376 23.4118V16.2353H121.906V22.8824C121.878 23.1602 121.911 23.4408 122.002 23.7048C122.094 23.9687 122.241 24.2096 122.434 24.4111C122.628 24.6123 122.864 24.7693 123.124 24.8711C123.384 24.9727 123.662 25.0167 123.941 25C125.212 25 126.106 24.2471 126.106 22.6471V16.2353H129.588Z" fill="#1D262B"/>
<path d="M149.588 20.7294V27.8824H146.059V21.0353C146.059 19.8589 145.506 19.1294 144.388 19.1294C143.271 19.1294 142.565 19.9412 142.565 21.3177V27.8824H139.035V21.0353C139.035 19.8589 138.482 19.1294 137.365 19.1294C136.247 19.1294 135.541 19.9412 135.541 21.3177V27.8824H132.012V16.2353H135.541V17.3059C135.907 16.833 136.384 16.4584 136.931 16.216C137.476 15.9737 138.075 15.8711 138.671 15.9177C139.267 15.8865 139.862 16.0112 140.396 16.2793C140.931 16.5474 141.386 16.9499 141.718 17.4471C142.106 16.9276 142.619 16.5149 143.209 16.2474C143.799 15.9799 144.448 15.8665 145.094 15.9177C147.847 15.9177 149.588 17.8236 149.588 20.7294Z" fill="#1D262B"/>
<path d="M152.553 16.1647C153.982 16.1647 155.141 15.0059 155.141 13.5765C155.141 12.147 153.982 10.9882 152.553 10.9882C151.124 10.9882 149.965 12.147 149.965 13.5765C149.965 15.0059 151.124 16.1647 152.553 16.1647Z" fill="#1D262B"/>
</svg>
