<svg width="128" height="32" viewBox="0 0 128 32" fill="none" xmlns="http://www.w3.org/2000/svg">
<path d="M3.67038 29.68H31.0304V2.32001H3.67038V29.68ZM25.7643 13.3675H19.9829V7.58614H25.7643V13.3675ZM8.93545 7.58614H14.72V18.6325H25.7643V24.4139H8.93545V7.58614ZM48.8469 2.32001C46.1412 2.32001 43.4963 3.12233 41.2467 4.62551C38.997 6.12869 37.2436 8.26521 36.2082 10.7649C35.1728 13.2646 34.902 16.0152 35.4298 18.6688C35.9577 21.3225 37.2605 23.76 39.1737 25.6732C41.0868 27.5865 43.5244 28.8893 46.178 29.4172C48.8318 29.945 51.5823 29.6741 54.082 28.6387C56.5818 27.6033 58.7182 25.8499 60.2214 23.6002C61.7246 21.3505 62.5269 18.7056 62.5269 16C62.5227 12.3731 61.08 8.89605 58.5154 6.33147C55.9508 3.76689 52.4738 2.32424 48.8469 2.32001ZM48.8469 24.4139C47.1828 24.4139 45.5561 23.9204 44.1724 22.9958C42.7888 22.0714 41.7103 20.7573 41.0735 19.2198C40.4367 17.6825 40.2701 15.9907 40.5947 14.3585C40.9194 12.7264 41.7207 11.2272 42.8974 10.0505C44.0741 8.87381 45.5733 8.07247 47.2054 7.74782C48.8375 7.42317 50.5293 7.58979 52.0668 8.22661C53.6042 8.86343 54.9183 9.94186 55.8428 11.3256C56.7674 12.7091 57.2608 14.3359 57.2608 16C57.2574 18.2305 56.3698 20.3686 54.7926 21.9458C53.2155 23.523 51.0773 24.4105 48.8469 24.4139ZM111.481 2.32001C108.774 2.3198 106.13 3.12194 103.88 4.62499C101.63 6.12804 99.8767 8.26449 98.8411 10.7642C97.8055 13.2638 97.5344 16.0145 98.0622 18.6682C98.5899 21.3219 99.8927 23.7596 101.806 25.6729C103.719 27.5861 106.156 28.8892 108.811 29.4171C111.463 29.945 114.214 29.6741 116.715 28.6388C119.214 27.6034 121.35 25.85 122.853 23.6003C124.357 21.3506 125.159 18.7057 125.159 16C125.155 12.3733 123.713 8.89639 121.149 6.33185C118.585 3.76729 115.107 2.32453 111.481 2.32001ZM111.481 24.4139C109.817 24.4141 108.19 23.9208 106.806 22.9964C105.422 22.072 104.343 20.758 103.706 19.2206C103.069 17.6832 102.903 15.9914 103.227 14.3592C103.552 12.727 104.353 11.2277 105.53 10.0509C106.706 8.87408 108.206 8.07263 109.838 7.74789C111.47 7.42315 113.162 7.58971 114.699 8.22651C116.237 8.8633 117.551 9.94173 118.476 11.3254C119.399 12.7091 119.893 14.3359 119.893 16C119.89 18.2303 119.003 20.3682 117.425 21.9454C115.849 23.5226 113.711 24.4102 111.481 24.4139ZM80.1632 2.32001C77.4575 2.32001 74.8126 3.12233 72.563 4.62551C70.3133 6.12869 68.5599 8.26521 67.5245 10.7649C66.4891 13.2646 66.2182 16.0152 66.746 18.6688C67.2739 21.3225 68.5767 23.76 70.4899 25.6732C72.4031 27.5865 74.8406 28.8893 77.4943 29.4172C80.1479 29.945 82.8986 29.6741 85.3983 28.6387C87.898 27.6033 90.0344 25.8499 91.5377 23.6002C93.0408 21.3505 93.8432 18.7056 93.8432 16C93.8389 12.3731 92.3963 8.89605 89.8317 6.33147C87.2671 3.76689 83.7901 2.32424 80.1632 2.32001ZM80.1632 24.4139C78.6127 24.4146 77.0923 23.987 75.7695 23.1781C74.4468 22.3693 73.3732 21.2108 72.6674 19.8303C71.9617 18.4498 71.651 16.9011 71.7698 15.3553C71.8886 13.8094 72.4322 12.3264 73.3407 11.07C74.2492 9.81362 75.4871 8.83266 76.9179 8.23543C78.3487 7.63819 79.9167 7.44792 81.4487 7.6856C82.9809 7.92328 84.4175 8.57967 85.6001 9.58232C86.7827 10.585 87.6653 11.8949 88.1504 13.3675H80.1632V18.6325H88.1504C87.5948 20.3129 86.5243 21.7757 85.0906 22.8133C83.657 23.8511 81.933 24.411 80.1632 24.4139Z" fill="#1D262B"/>
</svg>
