<svg width="152" height="40" viewBox="0 0 152 40" fill="none" xmlns="http://www.w3.org/2000/svg">
<path d="M35.4514 14C35.8629 14 36 14.1486 36 14.5486V23.6H40.6514C41.0514 23.6 41.2 23.7486 41.2 24.1486V24.9486C41.2 25.3486 41.0514 25.4971 40.6514 25.4971H34.5257C34.1257 25.4971 33.9657 25.3486 33.9657 24.9486V14.5486C33.9657 14.1486 34.1257 14 34.5257 14H35.4514Z" fill="#1D262B"/>
<path d="M45.2571 17.9886C45.2571 15.3486 46.9257 13.76 49.8286 13.76C52.7314 13.76 54.4 15.3486 54.4 17.9886V21.5086C54.4 24.1486 52.72 25.7372 49.8286 25.7372C46.9371 25.7372 45.2571 24.1486 45.2571 21.5086V17.9886ZM52.48 17.9886C52.48 16.5029 51.5543 15.7029 49.8857 15.7029C48.2171 15.7029 47.3029 16.5143 47.3029 17.9886V21.5314C47.3029 23.0286 48.2171 23.8172 49.8857 23.8172C51.5543 23.8172 52.48 22.9943 52.48 21.5314V17.9886Z" fill="#1D262B"/>
<path d="M68.0114 19.1999C68.4571 19.1999 68.56 19.3485 68.56 19.7485V21.9199C68.5721 22.4314 68.4696 22.9391 68.26 23.4058C68.0503 23.8725 67.739 24.2863 67.3486 24.6171C66.3791 25.3891 65.1567 25.7721 63.92 25.6914C60.96 25.6914 59.3486 24.1028 59.3486 21.4628V17.9199C59.3486 15.3142 61.0171 13.7142 63.92 13.7142C66.2057 13.7142 67.6914 14.6171 68.32 16.4228C68.3552 16.4907 68.3741 16.5658 68.3751 16.6421C68.3761 16.7186 68.3593 16.7942 68.3261 16.8629C68.2928 16.9317 68.2439 16.9918 68.1833 17.0385C68.1227 17.085 68.0521 17.1169 67.9771 17.1314L67.0857 17.4399C66.6971 17.5771 66.5371 17.4971 66.4 17.0971C66.2106 16.609 65.864 16.1978 65.4149 15.9287C64.9657 15.6597 64.4398 15.5479 63.92 15.6114C62.24 15.6114 61.3257 16.4228 61.3257 17.8971V21.5314C61.3257 23.0285 62.2514 23.8171 63.92 23.8171C65.5886 23.8171 66.6171 23.0514 66.6171 21.9314V21.0857H64.1371C63.7257 21.0857 63.5771 20.9257 63.5771 20.5257V19.7485C63.5771 19.3485 63.7257 19.1999 64.1371 19.1999H68.0114Z" fill="#1D262B"/>
<path d="M73.28 17.9886C73.28 15.3486 74.9486 13.76 77.8514 13.76C80.7543 13.76 82.4229 15.3486 82.4229 17.9886V21.5086C82.4229 24.1486 80.7429 25.7372 77.8514 25.7372C74.96 25.7372 73.28 24.1486 73.28 21.5086V17.9886ZM80.4914 17.9886C80.4914 16.5029 79.5657 15.7029 77.9086 15.7029C76.2514 15.7029 75.3143 16.5143 75.3143 17.9886V21.5314C75.3143 23.0286 76.24 23.8172 77.9086 23.8172C79.5771 23.8172 80.4914 22.9943 80.4914 21.5314V17.9886Z" fill="#1D262B"/>
<path d="M87.8057 14.3314C87.8057 14.08 87.8857 14 88.1371 14H88.6629C88.9143 14 88.9714 14.08 88.9714 14.3314V25.1657C88.9714 25.4171 88.9714 25.4971 88.6629 25.4971H88.1371C87.8857 25.4971 87.8057 25.4171 87.8057 25.1657V14.3314Z" fill="#1D262B"/>
<path d="M99.3829 14C100.335 14 101.247 14.3781 101.92 15.0511C102.593 15.724 102.971 16.6368 102.971 17.5886C102.971 18.5403 102.593 19.4531 101.92 20.1261C101.247 20.7991 100.335 21.1771 99.3829 21.1771H95.9543V25.1657C95.9543 25.4171 95.8971 25.4971 95.6571 25.4971H95.12C94.88 25.4971 94.7886 25.4171 94.7886 25.1657V14.3314C94.7886 14.08 94.88 14 95.12 14H99.3829ZM99.28 20.0457C99.6072 20.0457 99.9312 19.9813 100.233 19.8561C100.536 19.7309 100.81 19.5473 101.042 19.316C101.273 19.0847 101.457 18.8099 101.582 18.5078C101.707 18.2055 101.771 17.8815 101.771 17.5543C101.771 17.2271 101.707 16.9031 101.582 16.6008C101.457 16.2986 101.273 16.0239 101.042 15.7926C100.81 15.5613 100.536 15.3777 100.233 15.2525C99.9312 15.1273 99.6072 15.0629 99.28 15.0629H95.8514V20.0457H99.28Z" fill="#1D262B"/>
<path d="M111.897 13.7715C112.78 13.6741 113.67 13.8639 114.436 14.3127C115.201 14.7617 115.802 15.4455 116.149 16.2629C116.24 16.4458 116.149 16.5943 115.966 16.6858L115.463 16.9143C115.257 16.9943 115.177 16.9829 115.051 16.7658C114.792 16.1591 114.347 15.6506 113.78 15.3137C113.213 14.9767 112.554 14.8289 111.897 14.8915C109.966 14.8915 108.914 15.6572 108.914 17.0286C108.903 17.4477 109.044 17.8569 109.311 18.1803C109.577 18.5037 109.952 18.7198 110.366 18.7886C110.98 18.9891 111.618 19.1119 112.263 19.1543C113.044 19.1959 113.814 19.3539 114.549 19.6229C115.112 19.8011 115.597 20.1675 115.921 20.6607C116.246 21.154 116.391 21.7439 116.331 22.3315C116.331 24.4686 114.777 25.7601 111.92 25.7601C110.983 25.8673 110.037 25.6501 109.241 25.1447C108.444 24.6395 107.845 23.8764 107.543 22.9829C107.523 22.9422 107.512 22.8975 107.511 22.8521C107.51 22.8066 107.519 22.7615 107.538 22.7201C107.556 22.6786 107.584 22.6417 107.618 22.6121C107.653 22.5823 107.693 22.5607 107.737 22.5486L108.24 22.3658C108.28 22.3495 108.322 22.3418 108.365 22.3429C108.408 22.3441 108.45 22.3541 108.488 22.3724C108.527 22.3907 108.562 22.4167 108.59 22.4491C108.618 22.4814 108.639 22.5191 108.651 22.5601C108.907 23.2057 109.362 23.7531 109.949 24.123C110.537 24.4929 111.227 24.666 111.92 24.6172C114.08 24.6172 115.143 23.8629 115.143 22.3315C115.163 21.929 115.04 21.5323 114.795 21.2121C114.55 20.8919 114.199 20.669 113.806 20.5829C113.214 20.4066 112.605 20.2991 111.989 20.2629L110.754 20.1029C110.368 20.021 109.987 19.9179 109.611 19.7943C109.241 19.6825 108.896 19.5001 108.594 19.2572C108.291 18.9827 108.052 18.6449 107.894 18.2676C107.736 17.8903 107.663 17.483 107.68 17.0743C107.76 15.0743 109.257 13.7715 111.897 13.7715Z" fill="#1D262B"/>
<path d="M122.491 21.5886C122.539 22.3968 122.895 23.156 123.485 23.7111C124.074 24.2662 124.854 24.5752 125.663 24.5752C126.472 24.5752 127.251 24.2662 127.841 23.7111C128.431 23.156 128.785 22.3968 128.834 21.5886V14.3314C128.834 14.08 128.914 14 129.166 14H129.691C129.943 14 130.023 14.08 130.023 14.3314V21.5771C130.023 24.1714 128.491 25.7371 125.669 25.7371C122.846 25.7371 121.314 24.1714 121.314 21.5771V14.3314C121.314 14.08 121.394 14 121.634 14H122.171C122.411 14 122.491 14.08 122.491 14.3314V21.5886Z" fill="#1D262B"/>
<path d="M145.794 14C146.046 14 146.126 14.08 146.126 14.3314V25.1657C146.126 25.4171 146.046 25.4971 145.794 25.4971H145.314C145.074 25.4971 144.994 25.4171 144.994 25.1657V18.5714C144.994 17.612 145.059 16.6536 145.189 15.7029H145.12C144.763 16.5722 144.346 17.4161 143.874 18.2286L141.417 22.56C141.387 22.6352 141.335 22.6994 141.267 22.7443C141.2 22.7891 141.121 22.8126 141.04 22.8114H140.72C140.638 22.8119 140.558 22.7882 140.488 22.7437C140.419 22.699 140.365 22.6352 140.331 22.56L137.84 18.1829C137.398 17.3821 137.016 16.5493 136.697 15.6914H136.629C136.745 16.6509 136.807 17.6163 136.811 18.5829V25.1657C136.811 25.4171 136.731 25.4971 136.48 25.4971H136.034C135.783 25.4971 135.703 25.4171 135.703 25.1657V14.3314C135.703 14.08 135.783 14 136.034 14H136.446C136.539 13.9913 136.634 14.0118 136.715 14.0589C136.798 14.1059 136.863 14.1773 136.903 14.2629L140.903 21.3714L144.88 14.3314C145.006 14.0914 145.074 14.0571 145.326 14.0571L145.794 14Z" fill="#1D262B"/>
<path d="M15.12 23.76V32.0229C15.12 32.3397 14.9942 32.6434 14.7702 32.8673C14.5463 33.0913 14.2425 33.2172 13.9257 33.2172C13.609 33.2172 13.3053 33.0913 13.0813 32.8673C12.8573 32.6434 12.7314 32.3397 12.7314 32.0229V23.7714C13.064 24.0143 13.4626 24.1498 13.8743 24.16C14.323 24.1728 14.7626 24.0317 15.12 23.76ZM25.2914 21.3714C24.9883 21.3714 24.6976 21.4919 24.4833 21.7062C24.269 21.9205 24.1486 22.2112 24.1486 22.5143V23.9543C24.1486 24.2711 24.2744 24.5749 24.4984 24.7988C24.7223 25.0228 25.0261 25.1486 25.3429 25.1486C25.6597 25.1486 25.9634 25.0228 26.1873 24.7988C26.4113 24.5749 26.5371 24.2711 26.5371 23.9543V22.5714C26.5461 22.4076 26.5195 22.2437 26.4594 22.091C26.3993 21.9383 26.3071 21.8002 26.1888 21.6864C26.0706 21.5726 25.9293 21.4855 25.7745 21.4311C25.6197 21.3768 25.4549 21.3565 25.2914 21.3714ZM10.1371 26.8914C9.7259 26.8791 9.3278 26.7438 8.99428 26.5029V34.7886C8.99428 35.1069 9.1207 35.4121 9.34576 35.6372C9.5708 35.8622 9.87602 35.9886 10.1943 35.9886C10.5125 35.9886 10.8178 35.8622 11.0428 35.6372C11.2679 35.4121 11.3943 35.1069 11.3943 34.7886V26.56C11.0211 26.8013 10.5808 26.9174 10.1371 26.8914ZM21.5657 18.8914C21.4109 18.8837 21.2561 18.9076 21.1107 18.9615C20.9655 19.0154 20.8327 19.0984 20.7203 19.2053C20.6081 19.3122 20.5189 19.4408 20.4578 19.5833C20.3969 19.7258 20.3655 19.8793 20.3657 20.0343V26.4C20.3657 26.7183 20.4921 27.0236 20.7171 27.2486C20.9423 27.4736 21.2474 27.6 21.5657 27.6C21.884 27.6 22.1893 27.4736 22.4143 27.2486C22.6393 27.0236 22.7657 26.7183 22.7657 26.4V20.1143C22.7749 19.9494 22.7481 19.7845 22.6873 19.6309C22.6265 19.4773 22.5333 19.3386 22.4137 19.2246C22.2942 19.1105 22.1514 19.0237 21.9952 18.9702C21.839 18.9166 21.6729 18.8975 21.5086 18.9143L21.5657 18.8914ZM17.7714 21.3372C17.3409 21.3342 16.9219 21.1985 16.5714 20.9486V29.2572C16.5714 29.5754 16.6978 29.8807 16.9229 30.1057C17.148 30.3308 17.4531 30.4572 17.7714 30.4572C18.0897 30.4572 18.3949 30.3308 18.62 30.1057C18.845 29.8807 18.9714 29.5754 18.9714 29.2572V20.96C18.6089 21.2301 18.1663 21.3709 17.7143 21.36L17.7714 21.3372ZM7.54285 27.7029V4.49145C7.53985 4.20851 7.42533 3.9382 7.22419 3.73919C7.02305 3.54019 6.75152 3.42858 6.46857 3.42859H6.21714C5.93419 3.42858 5.66266 3.54019 5.46152 3.73919C5.26037 3.9382 5.14586 4.20851 5.14285 4.49145V27.7029C5.14285 27.9878 5.25604 28.261 5.4575 28.4625C5.65897 28.664 5.93222 28.7772 6.21714 28.7772H6.46857C6.75349 28.7772 7.02674 28.664 7.2282 28.4625C7.42968 28.261 7.54285 27.9878 7.54285 27.7029ZM10.2629 26.0114H10.0114C9.72651 26.0114 9.45325 25.8983 9.25179 25.6968C9.05033 25.4953 8.93714 25.2221 8.93714 24.9372V7.25716C8.94016 6.97423 9.05466 6.7039 9.2558 6.50491C9.45694 6.3059 9.72848 6.19429 10.0114 6.1943H10.2629C10.5458 6.19429 10.8173 6.3059 11.0185 6.50491C11.2196 6.7039 11.3341 6.97423 11.3371 7.25716V24.96C11.3371 25.2449 11.224 25.5182 11.0225 25.7197C10.821 25.9212 10.5478 26.0343 10.2629 26.0343V26.0114ZM14.0457 23.2914H13.7829C13.501 23.2914 13.2306 23.1794 13.0313 22.9801C12.832 22.7808 12.72 22.5105 12.72 22.2286V10C12.7185 9.85948 12.7449 9.72004 12.7976 9.58977C12.8503 9.45949 12.9283 9.34098 13.0272 9.24107C13.1261 9.14116 13.2438 9.06185 13.3735 9.00772C13.5032 8.95359 13.6423 8.92572 13.7829 8.92573H14.0457C14.3287 8.92875 14.599 9.04325 14.7979 9.24439C14.997 9.44554 15.1086 9.71707 15.1086 10V22.2286C15.1086 22.5105 14.9966 22.7808 14.7973 22.9801C14.5979 23.1794 14.3277 23.2914 14.0457 23.2914ZM17.8286 20.4914H17.5886C17.3056 20.4914 17.0341 20.3799 16.8329 20.1808C16.6318 19.9818 16.5173 19.7116 16.5143 19.4286V12.8457C16.5049 12.699 16.5257 12.5519 16.5755 12.4135C16.6253 12.2752 16.703 12.1485 16.8037 12.0414C16.9043 11.9342 17.0259 11.8489 17.161 11.7906C17.296 11.7325 17.4415 11.7025 17.5886 11.7029H17.84C18.1249 11.7029 18.3982 11.816 18.5997 12.0175C18.8011 12.219 18.9143 12.4922 18.9143 12.7772V19.4057C18.9158 19.5478 18.8891 19.6887 18.8358 19.8204C18.7825 19.952 18.7037 20.0718 18.6037 20.1728C18.5038 20.2737 18.3849 20.3538 18.2537 20.4086C18.1226 20.4633 17.9821 20.4914 17.84 20.4914H17.8286ZM21.6229 18.0343H21.3714C21.0865 18.0343 20.8133 17.9212 20.6118 17.7197C20.4103 17.5182 20.2971 17.2449 20.2971 16.96V15.2572C20.3001 14.9742 20.4146 14.7039 20.6158 14.5049C20.8169 14.3058 21.0885 14.1943 21.3714 14.1943H21.6229C21.9058 14.1943 22.1774 14.3058 22.3785 14.5049C22.5797 14.7039 22.6942 14.9742 22.6971 15.2572V16.96C22.6971 17.243 22.5856 17.5145 22.3865 17.7157C22.1875 17.9168 21.9173 18.0313 21.6343 18.0343H21.6229Z" fill="#1D262B"/>
</svg>
