<svg width="110" height="56" viewBox="0 0 110 56" fill="none" xmlns="http://www.w3.org/2000/svg">
<path d="M2.93665 32.4103H6.04731V47.6628H2.93665V32.4103Z" fill="#1D262B"/>
<path d="M7.85148 42.4369C7.84942 41.3414 8.17241 40.2698 8.77957 39.3579C9.38673 38.4459 10.2508 37.7346 11.2623 37.314C12.2739 36.8933 13.3875 36.7822 14.4623 36.9947C15.537 37.2071 16.5246 37.7336 17.2999 38.5076C18.0754 39.2815 18.6037 40.2681 18.8182 41.3425C19.0327 42.4168 18.9237 43.5306 18.5049 44.543C18.0861 45.5553 17.3765 46.4207 16.4656 47.0295C15.5549 47.6385 14.484 47.9634 13.3885 47.9634C12.6598 47.9718 11.937 47.8346 11.2621 47.5599C10.5873 47.2853 9.97405 46.8787 9.45837 46.3639C8.94268 45.8492 8.53493 45.2368 8.259 44.5623C7.98308 43.888 7.84453 43.1654 7.85148 42.4369ZM15.794 42.4369C15.7818 41.9639 15.6303 41.5051 15.3587 41.1178C15.087 40.7304 14.7072 40.4319 14.2667 40.2592C13.8262 40.0866 13.3446 40.0479 12.8822 40.1476C12.4197 40.2473 11.9969 40.4812 11.6666 40.8199C11.3365 41.1586 11.1135 41.5873 11.0255 42.0522C10.9376 42.517 10.9888 42.9975 11.1725 43.4335C11.3563 43.8694 11.6646 44.2415 12.0586 44.5032C12.4528 44.7648 12.9153 44.9045 13.3885 44.9046C13.7121 44.9137 14.0341 44.8556 14.3342 44.734C14.6343 44.6123 14.906 44.4298 15.1321 44.1979C15.358 43.966 15.5336 43.6898 15.6475 43.3868C15.7615 43.0836 15.8113 42.7602 15.794 42.4369Z" fill="#1D262B"/>
<path d="M31.4301 37.211V47.1443C31.4301 50.6593 28.6824 52.1421 25.9036 52.1421C24.9265 52.2148 23.9481 52.0171 23.0757 51.5709C22.2033 51.1246 21.4706 50.4469 20.9577 49.6121L23.6329 48.0672C23.8451 48.495 24.181 48.8493 24.5969 49.0841C25.0129 49.3188 25.4898 49.4233 25.9659 49.3839C26.279 49.4362 26.6001 49.4158 26.9042 49.3242C27.2084 49.2327 27.4874 49.0726 27.7199 48.8562C27.9522 48.6398 28.1319 48.3729 28.2448 48.0761C28.3578 47.7793 28.4011 47.4605 28.3713 47.1443V46.18C28.0057 46.6299 27.539 46.9873 27.0094 47.2233C26.4799 47.4593 25.9021 47.5672 25.323 47.5383C23.9149 47.5383 22.5647 46.979 21.569 45.9834C20.5734 44.9878 20.0141 43.6374 20.0141 42.2294C20.0141 40.8214 20.5734 39.4712 21.569 38.4756C22.5647 37.48 23.9149 36.9206 25.323 36.9206C25.9017 36.8942 26.4786 37.0032 27.0079 37.239C27.5372 37.4748 28.004 37.8309 28.3713 38.2789V37.242L31.4301 37.211ZM28.3713 42.2294C28.3921 41.7252 28.2614 41.2263 27.9964 40.7967C27.7312 40.3673 27.3437 40.0269 26.8836 39.8195C26.4235 39.6119 25.9118 39.5468 25.4144 39.6325C24.917 39.718 24.4566 39.9505 24.0924 40.2997C23.7281 40.6491 23.4766 41.0994 23.3703 41.5928C23.2639 42.0861 23.3076 42.6001 23.4957 43.0684C23.6838 43.5369 24.0076 43.9382 24.4256 44.2211C24.8437 44.504 25.3367 44.6553 25.8413 44.6558C26.1709 44.6791 26.5015 44.6332 26.812 44.5208C27.1226 44.4085 27.4063 44.2325 27.6447 44.0039C27.8829 43.7753 28.0708 43.4992 28.196 43.1936C28.3212 42.888 28.3809 42.5596 28.3713 42.2294Z" fill="#1D262B"/>
<path d="M33.224 42.4369C33.2219 41.3414 33.545 40.2698 34.1521 39.3579C34.7593 38.4459 35.6233 37.7346 36.6349 37.314C37.6464 36.8933 38.76 36.7822 39.8348 36.9947C40.9095 37.2071 41.8971 37.7336 42.6725 38.5076C43.4479 39.2815 43.9762 40.2681 44.1908 41.3425C44.4052 42.4168 44.2962 43.5306 43.8774 44.543C43.4586 45.5553 42.749 46.4207 41.8382 47.0295C40.9274 47.6385 39.8565 47.9634 38.761 47.9634C38.0324 47.9718 37.3095 47.8346 36.6346 47.5599C35.9598 47.2853 35.3465 46.8787 34.8309 46.3639C34.3152 45.8492 33.9074 45.2368 33.6315 44.5623C33.3556 43.888 33.217 43.1654 33.224 42.4369ZM41.1666 42.4369C41.1543 41.9639 41.0029 41.5051 40.7312 41.1178C40.4595 40.7304 40.0797 40.4319 39.6392 40.2592C39.1988 40.0866 38.7172 40.0479 38.2547 40.1476C37.7922 40.2473 37.3694 40.4812 37.0392 40.8199C36.709 41.1586 36.486 41.5873 36.398 42.0522C36.3102 42.517 36.3613 42.9975 36.545 43.4335C36.7288 43.8694 37.0371 44.2415 37.4312 44.5032C37.8254 44.7648 38.2878 44.9045 38.761 44.9046C39.0829 44.9108 39.4027 44.8506 39.7004 44.7276C39.9979 44.6046 40.2671 44.4217 40.4908 44.1901C40.7146 43.9586 40.8882 43.6834 41.001 43.3817C41.1136 43.0801 41.1629 42.7584 41.1458 42.4369H41.1666Z" fill="#1D262B"/>
<path d="M45.7392 34.4114C45.7392 34.0382 45.8499 33.6733 46.0572 33.363C46.2647 33.0527 46.5594 32.8108 46.9042 32.6679C47.249 32.5251 47.6284 32.4878 47.9945 32.5606C48.3606 32.6334 48.6968 32.8131 48.9608 33.077C49.2247 33.3409 49.4044 33.6771 49.4772 34.0432C49.5501 34.4093 49.5127 34.7888 49.3699 35.1336C49.2271 35.4784 48.9852 35.7732 48.6749 35.9805C48.3644 36.1878 47.9997 36.2985 47.6263 36.2985C47.1267 36.2959 46.6483 36.0961 46.295 35.7428C45.9416 35.3895 45.742 34.9111 45.7392 34.4114ZM46.0606 37.211H49.1713V47.6628H46.0606V37.211Z" fill="#1D262B"/>
<path d="M62.7336 42.4369C62.7713 43.1278 62.672 43.8193 62.4414 44.4717C62.2107 45.124 61.8534 45.7243 61.3898 46.238C60.9262 46.7517 60.3657 47.1686 59.7404 47.4647C59.115 47.7609 58.4373 47.9304 57.7462 47.9636C57.166 47.9913 56.5867 47.8916 56.0493 47.6713C55.5118 47.4509 55.0292 47.1153 54.6356 46.6882V51.8726H51.5249V37.211H54.6356V38.1961C55.0292 37.7689 55.5118 37.4334 56.0493 37.213C56.5867 36.9926 57.166 36.8929 57.7462 36.9207C58.4364 36.9538 59.1133 37.1231 59.7378 37.4185C60.3625 37.7141 60.9226 38.1301 61.386 38.6426C61.8495 39.1552 62.207 39.7542 62.4382 40.4053C62.6696 41.0565 62.77 41.7469 62.7336 42.4369ZM59.623 42.4369C59.6107 41.9503 59.4558 41.4779 59.1777 41.0783C58.8996 40.6788 58.5104 40.3695 58.0584 40.189C57.6063 40.0084 57.1111 39.9643 56.6343 40.0624C56.1574 40.1603 55.7198 40.3961 55.3755 40.7403C55.0313 41.0846 54.7957 41.5221 54.6976 41.999C54.5997 42.4759 54.6437 42.971 54.8242 43.4231C55.0048 43.8751 55.314 44.2644 55.7136 44.5424C56.1132 44.8205 56.5856 44.9754 57.0722 44.9877C57.4118 45.0093 57.7521 44.9579 58.0703 44.8371C58.3884 44.7162 58.677 44.5287 58.9167 44.2871C59.1563 44.0454 59.3415 43.7553 59.4598 43.4362C59.578 43.1171 59.6266 42.7764 59.6022 42.4369H59.623Z" fill="#1D262B"/>
<path d="M72.4182 44.5315C72.4182 46.9371 70.3444 47.9635 68.0633 47.9635C67.152 48.0442 66.2375 47.8503 65.4373 47.4068C64.6373 46.9633 63.9881 46.2905 63.5736 45.475L66.2903 43.9301C66.4005 44.3073 66.6366 44.6354 66.9591 44.8598C67.2817 45.0842 67.6713 45.1916 68.0633 45.1639C68.8203 45.1639 69.1935 44.9255 69.1935 44.5107C69.1935 43.3598 64.0091 43.9716 64.0091 40.3632C64.0091 38.082 65.9377 36.9311 68.1566 36.9311C68.9754 36.9062 69.786 37.1007 70.5043 37.4946C71.2227 37.8883 71.8225 38.4671 72.242 39.1707L69.515 40.6017C69.3945 40.3279 69.1971 40.0948 68.9467 39.931C68.6964 39.7672 68.404 39.6796 68.1048 39.6788C67.5656 39.6788 67.2338 39.8862 67.2338 40.2699C67.2753 41.4622 72.4182 40.6639 72.4182 44.5315Z" fill="#1D262B"/>
<path d="M83.8654 37.2111V47.6629H80.7546V46.6882C80.3928 47.1213 79.9336 47.4626 79.4146 47.6843C78.8956 47.906 78.3315 48.0016 77.7684 47.9636C75.6946 47.9636 73.8594 46.4601 73.8594 43.6294V37.2111H76.97V43.1732C76.9427 43.4273 76.9723 43.6842 77.0566 43.9255C77.141 44.1667 77.2779 44.3861 77.4576 44.5678C77.6373 44.7495 77.8552 44.8889 78.0955 44.9758C78.3358 45.0629 78.5925 45.0952 78.8468 45.0707C79.9874 45.0707 80.7858 44.4071 80.7858 42.9244V37.2111H83.8654Z" fill="#1D262B"/>
<path d="M101.845 41.2548V47.6627H98.7341V41.5245C98.7341 40.4876 98.2261 39.8032 97.2307 39.8032C96.2353 39.8032 95.5924 40.5394 95.5924 41.7733V47.6627H92.4818V41.5245C92.4818 40.4876 91.9841 39.8032 90.9782 39.8032C89.9726 39.8032 89.3504 40.5394 89.3504 41.7733V47.6627H86.2398V37.2111H89.3504V38.1754C89.6755 37.7494 90.1019 37.4116 90.5909 37.1925C91.0798 36.9733 91.6158 36.8799 92.15 36.9207C92.6865 36.8946 93.2207 37.008 93.7003 37.2496C94.18 37.4913 94.5889 37.8531 94.8874 38.2998C95.2344 37.8328 95.6941 37.4613 96.2236 37.2202C96.7531 36.979 97.335 36.8759 97.915 36.9207C100.279 36.9207 101.845 38.6419 101.845 41.2548Z" fill="#1D262B"/>
<path d="M104.499 37.1489C105.782 37.1489 106.822 36.109 106.822 34.8262C106.822 33.5435 105.782 32.5037 104.499 32.5037C103.217 32.5037 102.177 33.5435 102.177 34.8262C102.177 36.109 103.217 37.1489 104.499 37.1489Z" fill="#1D262B"/>
<path d="M38.1388 24.499C44.146 24.499 49.0157 19.6292 49.0157 13.622C49.0157 7.61488 44.146 2.74512 38.1388 2.74512C32.1317 2.74512 27.2619 7.61488 27.2619 13.622C27.2619 19.6292 32.1317 24.499 38.1388 24.499Z" fill="#1D262B"/>
<path d="M62.4537 24.499C68.4609 24.499 73.3306 19.6292 73.3306 13.622C73.3306 7.61488 68.4609 2.74512 62.4537 2.74512C56.4466 2.74512 51.5768 7.61488 51.5768 13.622C51.5768 19.6292 56.4466 24.499 62.4537 24.499Z" fill="#1D262B"/>
<path d="M24.7008 2.74512H2.9574V24.4885H24.7008V2.74512Z" fill="#1D262B"/>
</svg>
