<svg width="152" height="40" viewBox="0 0 152 40" fill="none" xmlns="http://www.w3.org/2000/svg">
<path d="M44.5828 12.8686H48.2514V27.7257H44.5828V12.8686ZM49.7143 22.1371C49.7143 18.4571 52 16.2514 55.4285 16.2514C58.8571 16.2514 61.1428 18.4571 61.1428 22.1371C61.1428 25.8171 58.9371 28.0457 55.4285 28.0457C51.92 28.0457 49.7143 25.8971 49.7143 22.1371ZM57.5085 22.1371C57.5085 20.1143 56.72 18.9257 55.4628 18.9257C54.2057 18.9257 53.4285 20.0686 53.4285 22.1371C53.4285 24.2057 54.2057 25.3371 55.4628 25.3371C56.72 25.3371 57.5314 24.2057 57.5314 22.1486L57.5085 22.1371ZM62.6057 28.4914H66.1485C66.3098 28.8728 66.5915 29.1911 66.9506 29.3974C67.3097 29.6038 67.7264 29.687 68.1371 29.6343C69.5428 29.6343 70.2743 28.88 70.2743 27.76V25.7029H70.2857C69.9829 26.3434 69.4933 26.8773 68.8815 27.2343C68.2695 27.5913 67.5637 27.7546 66.8571 27.7029C64.1714 27.7029 62.3885 25.6571 62.3885 22.1371C62.3885 18.6171 64.0914 16.4229 66.96 16.4229C67.6847 16.3841 68.4036 16.571 69.0176 16.9578C69.6316 17.3447 70.1106 17.9125 70.3885 18.5829H70.2857V16.5143H73.92V27.6457C73.92 30.3314 71.5428 32.0114 68.0457 32.0114C64.8685 32 62.8343 30.5486 62.6285 28.5029L62.6057 28.4914ZM70.2857 22.1371C70.2857 20.3429 69.4628 19.2114 68.16 19.2114C66.8571 19.2114 66.0571 20.3543 66.0571 22.1371C66.0571 23.92 66.8457 24.9714 68.16 24.9714C69.4743 24.9714 70.2857 24 70.2857 22.1371ZM75.3714 22.1371C75.3714 18.4571 77.6571 16.2514 81.0857 16.2514C84.5143 16.2514 86.8 18.4571 86.8 22.1371C86.8 25.8171 84.5828 28.0457 81.0857 28.0457C77.5885 28.0457 75.3943 25.8971 75.3943 22.1371H75.3714ZM83.1657 22.1371C83.1657 20.1143 82.3657 18.9257 81.12 18.9257C79.8743 18.9257 79.0857 20.0686 79.0857 22.1371C79.0857 24.2057 79.8628 25.3371 81.12 25.3371C82.3771 25.3371 83.1885 24.2057 83.1885 22.1486L83.1657 22.1371ZM88.2857 13.8057C88.2697 13.432 88.3659 13.0621 88.5619 12.7435C88.7579 12.4249 89.0448 12.1723 89.3856 12.0182C89.7264 11.8639 90.1055 11.8152 90.4741 11.8783C90.8428 11.9413 91.1842 12.1131 91.4544 12.3718C91.7245 12.6305 91.9112 12.964 91.9903 13.3296C92.0692 13.6952 92.0371 14.0761 91.8979 14.4232C91.7587 14.7704 91.5188 15.068 91.2091 15.2777C90.8994 15.4874 90.534 15.5997 90.16 15.6C89.921 15.6061 89.6831 15.5646 89.4602 15.4781C89.2373 15.3914 89.0338 15.2614 88.8616 15.0955C88.6893 14.9297 88.5517 14.7313 88.4569 14.5118C88.3619 14.2923 88.3115 14.0562 88.3085 13.8171L88.2857 13.8057ZM88.2857 16.5029H92V27.7714H88.3428L88.2857 16.5029ZM105.36 22.1371C105.36 25.8057 103.714 27.9314 100.914 27.9314C100.197 27.9757 99.4843 27.7987 98.8712 27.4248C98.258 27.0507 97.7745 26.4976 97.4857 25.84H97.4171V31.3943H93.7485V16.5371H97.3943V18.5486H97.4628C97.7417 17.8781 98.2205 17.3097 98.834 16.9211C99.4476 16.5326 100.166 16.3426 100.891 16.3771C103.771 16.3543 105.429 18.4686 105.429 22.1486L105.36 22.1371ZM101.623 22.1371C101.623 20.3543 100.789 19.2 99.4971 19.2C98.2057 19.2 97.3943 20.3429 97.3828 22.1371C97.3714 23.9314 98.2057 25.0629 99.4971 25.0629C100.789 25.0629 101.691 24 101.691 22.1486L101.623 22.1371ZM111.623 16.24C114.697 16.24 116.606 17.6914 116.629 20.0229H113.28C113.28 19.2114 112.606 18.7086 111.6 18.7086C110.594 18.7086 110.114 19.0971 110.114 19.68C110.114 20.2629 110.537 20.4457 111.383 20.6171L113.737 21.0971C116.023 21.5771 116.937 22.4914 116.937 24.1943C116.937 26.48 114.823 28.0343 111.68 28.0343C108.537 28.0343 106.491 26.5257 106.343 24.2286H109.897C110 25.0629 110.663 25.5543 111.737 25.5543C112.811 25.5543 113.314 25.2114 113.314 24.6057C113.314 24 112.971 23.8971 112.091 23.7143L109.966 23.2686C107.76 22.8 106.606 21.6457 106.606 19.92C106.674 17.68 108.594 16.2514 111.691 16.2514L111.623 16.24ZM129.223 27.76H125.669V25.6457H125.6C125.401 26.351 124.968 26.9673 124.371 27.3931C123.775 27.8191 123.051 28.029 122.32 27.9886C121.768 28.0065 121.217 27.9075 120.706 27.6979C120.195 27.4885 119.734 27.1731 119.353 26.7728C118.971 26.3723 118.68 25.8959 118.496 25.3747C118.312 24.8536 118.24 24.2993 118.286 23.7486V16.5143H121.954V22.96C121.954 24.2857 122.651 25.0057 123.794 25.0057C124.063 25.0037 124.327 24.9441 124.57 24.8312C124.814 24.7182 125.03 24.5543 125.203 24.3506C125.378 24.147 125.507 23.9082 125.582 23.6506C125.655 23.3929 125.673 23.1224 125.634 22.8571V16.5143H129.291L129.223 27.76ZM130.994 16.5029H134.56V18.6743H134.64C134.837 17.9786 135.259 17.368 135.84 16.9378C136.422 16.5078 137.129 16.2824 137.851 16.2971C138.577 16.2341 139.301 16.4439 139.879 16.8856C140.458 17.3273 140.851 17.9693 140.983 18.6857H141.143C141.371 17.9654 141.831 17.3407 142.451 16.9088C143.071 16.4768 143.817 16.2618 144.571 16.2971C145.073 16.2781 145.574 16.3651 146.039 16.5527C146.505 16.7401 146.926 17.0239 147.274 17.3854C147.623 17.7467 147.89 18.1777 148.061 18.6499C148.232 19.1222 148.301 19.625 148.263 20.1257V27.7714H144.571V21.0629C144.571 19.92 144.034 19.28 142.994 19.28C142.763 19.2762 142.535 19.3224 142.323 19.4152C142.112 19.5081 141.925 19.6456 141.771 19.8182C141.618 19.9909 141.504 20.1944 141.437 20.4152C141.37 20.636 141.352 20.8686 141.383 21.0971V27.7714H137.886V21.0286C137.886 19.8857 137.326 19.28 136.32 19.28C136.087 19.2782 135.856 19.3262 135.643 19.4208C135.43 19.5155 135.24 19.6546 135.085 19.8289C134.93 20.0032 134.815 20.2086 134.746 20.4312C134.677 20.6539 134.656 20.8888 134.686 21.12V27.7714H131.017L130.994 16.5029Z" fill="#1D262B"/>
<path d="M37.3257 13.8399C37.3258 11.5653 36.639 9.34367 35.3551 7.46603C34.0712 5.58838 32.2501 4.14227 30.1304 3.31713C28.0107 2.49197 25.6912 2.32626 23.4758 2.84167C21.2602 3.35709 19.2521 4.52962 17.7143 6.20566H3.45145V36.3085H33.5657V22.2399C34.7477 21.1828 35.6935 19.8883 36.3414 18.4409C36.9893 16.9934 37.3247 15.4258 37.3257 13.8399ZM31.5314 13.8399C31.5337 14.9299 31.2126 15.9961 30.6087 16.9035C30.0047 17.8108 29.1453 18.5187 28.1389 18.9373C27.1325 19.3561 26.0246 19.4668 24.9552 19.2555C23.8859 19.0443 22.9033 18.5205 22.1318 17.7506C21.3602 16.9806 20.8345 15.9991 20.621 14.9302C20.4075 13.8614 20.516 12.7532 20.9326 11.746C21.3491 10.7388 22.0552 9.87776 22.9613 9.27197C23.8674 8.66618 24.9329 8.34282 26.0229 8.34281C27.4818 8.34281 28.8813 8.92161 29.9139 9.95219C30.9467 10.9828 31.5285 12.381 31.5314 13.8399ZM27.7714 30.5142H9.24573V11.9999H14.8914C14.7824 12.6074 14.725 13.2229 14.72 13.8399C14.7231 16.8367 15.9149 19.7099 18.0339 21.829C20.1529 23.9479 23.0261 25.1398 26.0229 25.1428C26.6088 25.1397 27.1935 25.09 27.7714 24.9942V30.5142Z" fill="#1D262B"/>
</svg>
