<svg width="152" height="40" viewBox="0 0 152 40" fill="none" xmlns="http://www.w3.org/2000/svg">
<path d="M51.8057 28.8053C51.1259 28.8422 50.4536 28.649 49.8971 28.2567C49.6647 28.0844 49.4776 27.858 49.3521 27.5972C49.2266 27.3363 49.1666 27.0489 49.1771 26.7596V16.1653C49.1716 16.1205 49.1763 16.0749 49.1911 16.0322C49.2057 15.9894 49.2299 15.9507 49.2619 15.9187C49.2939 15.8867 49.3327 15.8625 49.3754 15.8478C49.4181 15.8331 49.4637 15.8284 49.5085 15.8339H51.4285C51.6457 15.8339 51.7485 15.9482 51.7485 16.1653V25.9367C51.7485 26.371 51.9428 26.5882 52.3428 26.5882C52.5124 26.5951 52.682 26.5759 52.8457 26.531C53.0743 26.531 53.2 26.5996 53.2114 26.8053L53.3828 28.2339C53.3911 28.2756 53.3903 28.3185 53.3805 28.3598C53.3708 28.4011 53.3523 28.4399 53.3263 28.4734C53.3003 28.507 53.2674 28.5347 53.2299 28.5545C53.1923 28.5742 53.151 28.5858 53.1086 28.5882C52.688 28.7271 52.2486 28.8004 51.8057 28.8053Z" fill="#1D262B"/>
<path d="M62.6057 27.5826C61.641 28.3797 60.4286 28.8157 59.1771 28.8157C57.9257 28.8157 56.7134 28.3797 55.7486 27.5826C54.9007 26.7266 54.4249 25.5703 54.4249 24.3654C54.4249 23.1605 54.9007 22.0043 55.7486 21.1483C56.7152 20.3552 57.9268 19.9219 59.1771 19.9219C60.4274 19.9219 61.6391 20.3552 62.6057 21.1483C63.4342 22.0122 63.8967 23.1628 63.8967 24.3597C63.8967 25.5566 63.4342 26.7072 62.6057 27.5711V27.5826ZM57.5543 26.074C58.002 26.4796 58.5844 26.7042 59.1886 26.7042C59.7927 26.7042 60.3752 26.4796 60.8228 26.074C61.2281 25.6082 61.4512 25.0115 61.4512 24.394C61.4512 23.7766 61.2281 23.1799 60.8228 22.714C60.3752 22.3085 59.7927 22.0838 59.1886 22.0838C58.5844 22.0838 58.002 22.3085 57.5543 22.714C57.1491 23.1799 56.9259 23.7766 56.9259 24.394C56.9259 25.0115 57.1491 25.6082 57.5543 26.074Z" fill="#1D262B"/>
<path d="M74.4686 20.2111C74.6857 20.2111 74.7886 20.3254 74.7886 20.5426V28.7368C74.8086 29.29 74.705 29.8405 74.4856 30.3485C74.2662 30.8566 73.9363 31.3094 73.52 31.674C72.5959 32.462 71.4075 32.8703 70.1943 32.8168C69.0985 32.8554 68.0172 32.5562 67.0971 31.9597C66.7042 31.7018 66.3686 31.3656 66.1111 30.9725C65.8535 30.5792 65.6795 30.1373 65.6 29.674C65.6 29.4454 65.6 29.3426 65.9086 29.3426H67.8286C67.91 29.3453 67.9891 29.3717 68.056 29.4183C68.123 29.465 68.175 29.5299 68.2057 29.6054C68.3303 29.9525 68.5785 30.2415 68.9028 30.4168C69.2982 30.6208 69.7382 30.723 70.1828 30.714C70.4512 30.7287 70.7198 30.6898 70.9729 30.5995C71.226 30.5093 71.4586 30.3694 71.6571 30.1883C71.8385 29.9988 71.9795 29.7744 72.0719 29.529C72.1642 29.2835 72.2058 29.0218 72.1943 28.7597V28.0397C71.5068 28.5453 70.6702 28.8068 69.8171 28.7826C69.2201 28.8043 68.6249 28.7052 68.0671 28.4911C67.5094 28.277 67.0007 27.9525 66.5714 27.5368C65.7475 26.6845 65.287 25.5453 65.287 24.3597C65.287 23.1742 65.7475 22.035 66.5714 21.1826C67.0027 20.7707 67.5121 20.4493 68.0695 20.2373C68.627 20.0253 69.2211 19.927 69.8171 19.9483C70.6948 19.9251 71.554 20.2035 72.2514 20.7368V20.554C72.2462 20.5102 72.2507 20.4658 72.2648 20.4239C72.2788 20.3822 72.302 20.344 72.3327 20.3123C72.3633 20.2805 72.4007 20.256 72.4419 20.2405C72.4833 20.225 72.5275 20.2189 72.5714 20.2226L74.4686 20.2111ZM70.0343 26.7483C70.3287 26.7574 70.6216 26.7018 70.8921 26.5852C71.1626 26.4687 71.4043 26.2942 71.6 26.074C71.98 25.5834 72.1862 24.9803 72.1862 24.3597C72.1862 23.7391 71.98 23.1362 71.6 22.6454C71.405 22.4283 71.1648 22.2563 70.8963 22.1418C70.6278 22.0272 70.3375 21.973 70.0457 21.9826C69.7479 21.9732 69.4516 22.0286 69.1774 22.1451C68.9031 22.2615 68.6574 22.4362 68.4571 22.6568C68.0362 23.1262 67.8148 23.7412 67.84 24.3711C67.8194 24.9949 68.0359 25.6034 68.4457 26.074C68.6464 26.2941 68.8922 26.4684 69.1664 26.5847C69.4406 26.7011 69.7366 26.7568 70.0343 26.7483Z" fill="#1D262B"/>
<path d="M84.6514 27.5825C83.6848 28.3756 82.4731 28.8089 81.2228 28.8089C79.9725 28.8089 78.7609 28.3756 77.7943 27.5825C76.9651 26.7167 76.5023 25.5643 76.5023 24.3654C76.5023 23.1667 76.9651 22.0141 77.7943 21.1483C78.7618 20.3573 79.9731 19.9252 81.2228 19.9252C82.4725 19.9252 83.6839 20.3573 84.6514 21.1483C85.4799 22.0121 85.9424 23.1628 85.9424 24.3597C85.9424 25.5566 85.4799 26.7072 84.6514 27.5711V27.5825ZM79.5885 26.074C79.8076 26.2824 80.0659 26.4453 80.3484 26.5532C80.6309 26.6611 80.932 26.7119 81.2343 26.7025C81.5346 26.7103 81.8336 26.6589 82.114 26.551C82.3945 26.4431 82.6508 26.2811 82.8685 26.074C83.2672 25.6049 83.486 25.0095 83.486 24.394C83.486 23.7784 83.2672 23.183 82.8685 22.714C82.6508 22.507 82.3945 22.3448 82.114 22.2371C81.8336 22.1292 81.5346 22.0776 81.2343 22.0854C80.932 22.0761 80.6309 22.1269 80.3484 22.2348C80.0659 22.3427 79.8076 22.5056 79.5885 22.714C79.19 23.183 78.9712 23.7784 78.9712 24.394C78.9712 25.0095 79.19 25.6049 79.5885 26.074Z" fill="#1D262B"/>
<path d="M90.0686 18.2682C89.7665 18.5326 89.3786 18.6783 88.9771 18.6783C88.5757 18.6783 88.1879 18.5326 87.8857 18.2682C87.7488 18.1389 87.6397 17.983 87.565 17.8101C87.4905 17.6372 87.452 17.4508 87.452 17.2625C87.452 17.0741 87.4905 16.8878 87.565 16.7148C87.6397 16.5419 87.7488 16.386 87.8857 16.2567C88.191 15.9989 88.5776 15.8575 88.9771 15.8575C89.3767 15.8575 89.7633 15.9989 90.0686 16.2567C90.2056 16.386 90.3147 16.5419 90.3893 16.7148C90.4639 16.8878 90.5023 17.0741 90.5023 17.2625C90.5023 17.4508 90.4639 17.6372 90.3893 17.8101C90.3147 17.983 90.2056 18.1389 90.0686 18.2682ZM90.3086 28.8053C89.6293 28.8387 88.9581 28.6458 88.4 28.2567C88.1711 28.0819 87.9872 27.8547 87.864 27.5942C87.7407 27.3338 87.6815 27.0476 87.6914 26.7596V20.5425C87.6859 20.4977 87.6906 20.4521 87.7054 20.4093C87.72 20.3666 87.7442 20.3278 87.7762 20.2958C87.8082 20.2638 87.847 20.2396 87.8897 20.225C87.9325 20.2102 87.978 20.2055 88.0228 20.211H89.9429C90.16 20.211 90.2629 20.3253 90.2629 20.5425V25.9367C90.2629 26.371 90.4571 26.5882 90.8457 26.5882C91.0191 26.5945 91.1923 26.5751 91.36 26.531C91.5886 26.531 91.7143 26.5996 91.7257 26.8053L91.8971 28.2339C91.9054 28.2756 91.9046 28.3185 91.8949 28.3598C91.8851 28.4011 91.8666 28.4399 91.8406 28.4734C91.8146 28.507 91.7817 28.5347 91.7442 28.5545C91.7066 28.5742 91.6653 28.5858 91.6229 28.5882C91.1986 28.7279 90.7553 28.8012 90.3086 28.8053Z" fill="#1D262B"/>
<path d="M98.96 19.9368C99.5598 19.9132 100.158 20.0102 100.72 20.2222C101.281 20.4343 101.794 20.7569 102.229 21.1711C103.037 22.0385 103.486 23.1799 103.486 24.3654C103.486 25.5509 103.037 26.6924 102.229 27.5597C101.796 27.9776 101.284 28.3035 100.722 28.5175C100.16 28.7317 99.5608 28.8296 98.96 28.8054C98.1042 28.8245 97.2655 28.5637 96.5714 28.0625V32.1883C96.5714 32.4054 96.4571 32.5083 96.24 32.5083H94.32C94.2762 32.5165 94.2311 32.5139 94.1885 32.5007C94.1459 32.4875 94.1072 32.4641 94.0756 32.4326C94.0442 32.4011 94.0208 32.3624 94.0076 32.3198C93.9944 32.2773 93.9919 32.2321 94 32.1883V22.8168C94.0135 22.7252 94.0053 22.6317 93.9762 22.5437C93.9471 22.4558 93.8977 22.3758 93.8322 22.3103C93.7667 22.2448 93.6869 22.1956 93.5989 22.1664C93.511 22.1373 93.4174 22.1292 93.3257 22.1425H92.9486C92.6971 22.1425 92.5714 22.0511 92.5714 21.8683V20.5197C92.5655 20.4363 92.5883 20.3533 92.6362 20.2847C92.684 20.216 92.7539 20.1659 92.8343 20.1425C93.2296 19.9989 93.648 19.9292 94.0686 19.9368C94.488 19.8997 94.9089 19.9887 95.2775 20.1923C95.6459 20.3959 95.9454 20.7049 96.1371 21.0797C96.5053 20.7073 96.9455 20.414 97.4308 20.2174C97.9162 20.0209 98.4366 19.9254 98.96 19.9368ZM97.1771 26.074C97.3809 26.287 97.6257 26.4565 97.8968 26.5723C98.1679 26.688 98.4595 26.7477 98.7543 26.7477C99.049 26.7477 99.3408 26.688 99.6118 26.5723C99.8829 26.4565 100.128 26.287 100.331 26.074C100.761 25.5952 100.986 24.9679 100.96 24.3254C100.99 23.6824 100.764 23.0536 100.331 22.5768C100.128 22.3639 99.8829 22.1944 99.6118 22.0787C99.3408 21.9628 99.049 21.9031 98.7543 21.9031C98.4595 21.9031 98.1679 21.9628 97.8968 22.0787C97.6257 22.1944 97.3809 22.3639 97.1771 22.5768C96.7614 23.0621 96.5449 23.6869 96.5714 24.3254C96.5482 24.9635 96.7643 25.5871 97.1771 26.074Z" fill="#1D262B"/>
<path d="M108.88 28.8053C107.854 28.8475 106.837 28.6021 105.943 28.0968C105.584 27.8808 105.279 27.5867 105.049 27.2365C104.82 26.8864 104.672 26.489 104.617 26.0739C104.617 25.8453 104.697 25.731 104.949 25.731H106.629C106.708 25.7342 106.786 25.7593 106.853 25.8037C106.919 25.8481 106.972 25.9099 107.006 25.9825C107.246 26.5996 107.874 26.9082 108.88 26.9082C109.231 26.9243 109.58 26.8536 109.897 26.7025C110.007 26.6531 110.1 26.5749 110.169 26.4763C110.237 26.3777 110.278 26.2622 110.286 26.1425C110.286 25.8453 110.103 25.6396 109.737 25.5025C109.303 25.3581 108.855 25.2622 108.4 25.2168C107.861 25.1557 107.327 25.0603 106.8 24.931C106.288 24.8152 105.822 24.5484 105.463 24.1653C105.251 23.905 105.096 23.6038 105.005 23.2808C104.915 22.9577 104.892 22.6194 104.938 22.2872C104.985 21.9548 105.099 21.6355 105.273 21.3492C105.448 21.0628 105.68 20.8155 105.954 20.6225C106.778 20.0978 107.745 19.8421 108.72 19.891C109.664 19.8592 110.599 20.0928 111.417 20.5653C111.747 20.7522 112.031 21.0101 112.248 21.3205C112.466 21.6309 112.611 21.9859 112.674 22.3596C112.674 22.5882 112.571 22.7025 112.366 22.7025H110.674C110.603 22.7067 110.532 22.6893 110.471 22.6526C110.41 22.616 110.361 22.5616 110.331 22.4968C110.218 22.2261 110.006 22.0092 109.737 21.891C109.434 21.7326 109.096 21.6539 108.754 21.6625C108.419 21.6443 108.085 21.7112 107.783 21.8568C107.676 21.8979 107.585 21.9699 107.519 22.0636C107.454 22.1573 107.419 22.2684 107.417 22.3825C107.424 22.5388 107.482 22.6886 107.58 22.81C107.679 22.9314 107.814 23.0178 107.966 23.0568C108.405 23.2222 108.861 23.3372 109.326 23.3996C109.86 23.47 110.391 23.5692 110.914 23.6968C111.427 23.8128 111.892 24.0794 112.251 24.4625C112.444 24.6736 112.592 24.9205 112.688 25.1893C112.784 25.458 112.826 25.7432 112.811 26.0282C112.821 26.4233 112.729 26.8141 112.542 27.1627C112.356 27.5112 112.082 27.8054 111.749 28.0168C110.895 28.565 109.894 28.84 108.88 28.8053Z" fill="#1D262B"/>
<path d="M124.891 28.2339C124.898 28.2745 124.896 28.316 124.887 28.3559C124.877 28.3959 124.859 28.4333 124.834 28.4664C124.81 28.4994 124.779 28.5272 124.744 28.5481C124.709 28.569 124.67 28.5826 124.629 28.5882C124.211 28.7244 123.776 28.7977 123.337 28.8053C122.903 28.8504 122.464 28.7825 122.064 28.6083C121.663 28.4341 121.314 28.1595 121.051 27.8111C120.245 28.5051 119.2 28.8612 118.137 28.8053C117.643 28.8281 117.151 28.7473 116.69 28.5682C116.23 28.3891 115.811 28.1156 115.463 27.7653C115.117 27.3984 114.848 26.9652 114.673 26.492C114.499 26.0187 114.421 25.5151 114.446 25.0111V20.5425C114.446 20.3253 114.549 20.2111 114.766 20.2111H116.686C116.903 20.2111 117.006 20.3253 117.006 20.5425V24.6682C116.985 25.1823 117.16 25.6849 117.497 26.0739C117.665 26.2522 117.87 26.3923 118.096 26.485C118.322 26.5777 118.567 26.6207 118.811 26.6111C119.062 26.622 119.312 26.5833 119.547 26.4969C119.783 26.4106 119.999 26.2785 120.183 26.1082C120.357 25.9288 120.493 25.7155 120.581 25.4816C120.67 25.2476 120.709 24.998 120.697 24.7482V20.5425C120.697 20.3253 120.8 20.2111 121.017 20.2111H122.96C123.177 20.2111 123.28 20.3253 123.28 20.5425V25.9253C123.28 26.3711 123.474 26.5882 123.851 26.5882C124.029 26.5951 124.206 26.5759 124.377 26.5311C124.421 26.5189 124.466 26.5168 124.51 26.5248C124.554 26.5327 124.595 26.5505 124.632 26.5769C124.669 26.6033 124.698 26.6376 124.72 26.6771C124.741 26.7167 124.752 26.7605 124.754 26.8053L124.891 28.2339Z" fill="#1D262B"/>
<path d="M143.051 28.2339C143.062 28.2748 143.063 28.3176 143.055 28.3589C143.046 28.4002 143.029 28.4393 143.003 28.4731C142.978 28.5069 142.946 28.5348 142.909 28.5547C142.872 28.5747 142.831 28.5861 142.789 28.5882C142.363 28.7264 141.921 28.7996 141.474 28.8053C140.794 28.8404 140.123 28.6474 139.566 28.2568C139.325 28.0894 139.129 27.8653 138.995 27.6042C138.862 27.343 138.794 27.0529 138.8 26.7596V24.0739C138.824 23.5614 138.653 23.0589 138.32 22.6682C138.16 22.4895 137.961 22.3487 137.741 22.2558C137.519 22.163 137.28 22.1204 137.04 22.131C136.824 22.1229 136.609 22.1639 136.41 22.251C136.213 22.3381 136.038 22.4691 135.897 22.6339C135.595 23.0169 135.441 23.4955 135.463 23.9825V28.1996C135.463 28.4167 135.36 28.531 135.143 28.531H133.211C133.167 28.5366 133.121 28.5318 133.079 28.5172C133.035 28.5025 132.997 28.4782 132.965 28.4462C132.933 28.4143 132.909 28.3755 132.894 28.3328C132.879 28.29 132.874 28.2445 132.88 28.1996V24.0739C132.905 23.567 132.746 23.0681 132.434 22.6682C132.295 22.5002 132.12 22.365 131.922 22.2722C131.726 22.1794 131.51 22.1312 131.291 22.131C131.058 22.1217 130.826 22.1616 130.609 22.2483C130.392 22.3349 130.197 22.4664 130.034 22.6339C129.707 23.0046 129.539 23.489 129.566 23.9825V28.1996C129.571 28.2445 129.567 28.29 129.552 28.3328C129.537 28.3755 129.513 28.4143 129.481 28.4462C129.449 28.4782 129.41 28.5025 129.368 28.5172C129.325 28.5318 129.279 28.5366 129.234 28.531H127.371C127.154 28.531 127.051 28.4167 127.051 28.1996V22.8168C127.065 22.7251 127.057 22.6316 127.027 22.5436C126.999 22.4557 126.95 22.3757 126.883 22.3102C126.818 22.2447 126.738 22.1955 126.65 22.1663C126.562 22.1372 126.469 22.1291 126.377 22.1425H126C125.749 22.1425 125.623 22.051 125.623 21.8682V20.5196C125.617 20.4362 125.64 20.3532 125.688 20.2846C125.736 20.2159 125.806 20.1658 125.886 20.1425C126.281 19.9988 126.699 19.9291 127.12 19.9367C127.523 19.9023 127.929 19.9828 128.289 20.1689C128.649 20.3549 128.949 20.6389 129.154 20.9882C129.539 20.6228 129.997 20.3407 130.496 20.1598C130.995 19.9789 131.527 19.903 132.057 19.9367C132.573 19.9116 133.086 20.0082 133.557 20.2187C134.027 20.4292 134.441 20.7476 134.766 21.1482C135.144 20.7371 135.609 20.4153 136.127 20.2057C136.645 19.9962 137.202 19.9044 137.76 19.9367C138.258 19.9134 138.757 19.9938 139.223 20.1729C139.689 20.3518 140.113 20.6255 140.469 20.9767C140.816 21.343 141.085 21.7761 141.259 22.2495C141.434 22.7229 141.512 23.227 141.486 23.731V25.9368C141.486 26.371 141.68 26.5882 142.046 26.5882C142.223 26.5964 142.4 26.5772 142.571 26.531C142.808 26.531 142.934 26.6225 142.949 26.8053L143.051 28.2339Z" fill="#1D262B"/>
<path d="M9.03998 18.7254C9.88315 15.3365 11.8359 12.327 14.5873 10.1763C17.3387 8.02557 20.7306 6.85718 24.2228 6.85718C27.7151 6.85718 31.107 8.02557 33.8584 10.1763C36.6098 12.327 38.5625 15.3365 39.4057 18.7254H38.0343C35.7208 18.6913 33.4547 19.3828 31.5543 20.7025C31.4446 20.782 31.33 20.8545 31.2114 20.9197H31.0514C30.9328 20.8545 30.8183 20.782 30.7086 20.7025C28.7913 19.4133 26.5332 18.7247 24.2228 18.7247C21.9124 18.7247 19.6544 19.4133 17.7371 20.7025C17.6274 20.782 17.5129 20.8545 17.3943 20.9197H17.2343C17.1156 20.8545 17.0011 20.782 16.8914 20.7025C14.991 19.3828 12.7249 18.6913 10.4114 18.7254H9.03998ZM35.5657 25.8911C36.2697 25.3429 37.1423 25.056 38.0343 25.0797H39.8743V21.4111H38.0343C36.4631 21.3921 34.9279 21.8812 33.6571 22.8054C32.942 23.3326 32.077 23.6171 31.1886 23.6171C30.3001 23.6171 29.4351 23.3326 28.72 22.8054C27.417 21.8984 25.8675 21.4121 24.28 21.4121C22.6924 21.4121 21.143 21.8984 19.84 22.8054C19.1249 23.3326 18.2599 23.6171 17.3714 23.6171C16.483 23.6171 15.6179 23.3326 14.9028 22.8054C13.6164 21.8693 12.0592 21.3797 10.4686 21.4111H8.57141V25.0797H10.4114C11.3034 25.056 12.176 25.3429 12.88 25.8911C14.1806 26.7988 15.7283 27.2854 17.3143 27.2854C18.9002 27.2854 20.448 26.7988 21.7486 25.8911C22.4535 25.3446 23.3254 25.058 24.2171 25.0797C25.1095 25.0541 25.9826 25.3412 26.6857 25.8911C27.9887 26.7982 29.5382 27.2844 31.1257 27.2844C32.7132 27.2844 34.2627 26.7982 35.5657 25.8911ZM35.5657 32.4511C36.2697 31.9029 37.1423 31.616 38.0343 31.6397H39.8743V27.9711H38.0343C36.4631 27.9521 34.9279 28.4412 33.6571 29.3654C32.942 29.8926 32.077 30.1771 31.1886 30.1771C30.3001 30.1771 29.4351 29.8926 28.72 29.3654C27.417 28.4584 25.8675 27.9723 24.28 27.9723C22.6924 27.9723 21.143 28.4584 19.84 29.3654C19.1249 29.8926 18.2599 30.1771 17.3714 30.1771C16.483 30.1771 15.6179 29.8926 14.9028 29.3654C13.6164 28.4294 12.0592 27.9397 10.4686 27.9711H8.57141V31.6397H10.4114C11.3034 31.616 12.176 31.9029 12.88 32.4511C14.1806 33.3588 15.7283 33.8454 17.3143 33.8454C18.9002 33.8454 20.448 33.3588 21.7486 32.4511C22.4535 31.9046 23.3254 31.618 24.2171 31.6397C25.1095 31.6141 25.9826 31.9012 26.6857 32.4511C27.9887 33.3582 29.5382 33.8444 31.1257 33.8444C32.7132 33.8444 34.2627 33.3582 35.5657 32.4511Z" fill="#1D262B"/>
</svg>
