<svg width="188" height="40" viewBox="0 0 188 40" fill="none" xmlns="http://www.w3.org/2000/svg">
<path d="M30.5587 17.828C30.0533 18.3364 29.6664 18.95 29.4253 19.6249C29.1843 20.3 29.0951 21.0199 29.164 21.7333L29.14 21.7093C29.2109 22.5492 29.0976 23.3943 28.8081 24.1859C28.5187 24.9773 28.06 25.6961 27.4641 26.2921C26.8681 26.888 26.1493 27.3468 25.3577 27.6361C24.5663 27.9256 23.7211 28.0389 22.8813 27.968L22.9053 27.992C21.9008 27.8985 20.8919 28.1171 20.016 28.618C19.1403 29.1189 18.4403 29.8777 18.0116 30.7911C17.5829 31.7044 17.4463 32.7276 17.6204 33.7215C17.7947 34.7152 18.2711 35.6311 18.9848 36.3441C19.6985 37.0572 20.6148 37.5328 21.6087 37.706C22.6027 37.8793 23.6257 37.7417 24.5387 37.3123C25.4516 36.8827 26.2097 36.1821 26.7099 35.3059C27.21 34.4296 27.4277 33.4205 27.3333 32.416L27.3587 32.44C27.2877 31.6003 27.4009 30.7551 27.6904 29.9635C27.9799 29.172 28.4387 28.4532 29.0345 27.8572C29.6305 27.2613 30.3493 26.8025 31.1408 26.5132C31.9324 26.2237 32.7775 26.1104 33.6173 26.1813L33.592 26.1573C34.4125 26.2311 35.2385 26.0965 35.9933 25.7661C36.748 25.4357 37.4072 24.9201 37.9096 24.2672C38.412 23.6143 38.7416 22.8449 38.8675 22.0308C38.9935 21.2165 38.9119 20.3837 38.6303 19.6093C38.3487 18.8351 37.8761 18.1444 37.2565 17.6013C36.6369 17.0583 35.8903 16.6804 35.0857 16.5028C34.2812 16.3252 33.4448 16.3535 32.6541 16.5851C31.8635 16.8168 31.1441 17.2443 30.5627 17.828H30.5587Z" fill="#1D262B"/>
<path d="M20.7227 24.848L20.6973 24.824C21.4111 24.8958 22.1319 24.8082 22.8077 24.5674C23.4835 24.3266 24.0973 23.9388 24.6048 23.4317C25.1121 22.9246 25.5007 22.311 25.7419 21.6354C25.9832 20.9598 26.0713 20.2392 26 19.5253L26.0253 19.5493C25.9544 18.7094 26.0677 17.8644 26.3571 17.0728C26.6465 16.2813 27.1053 15.5625 27.7012 14.9665C28.2972 14.3706 29.016 13.9118 29.8075 13.6225C30.5991 13.333 31.4441 13.2197 32.284 13.2906L32.2587 13.2666C33.2633 13.361 34.2725 13.1431 35.1488 12.6428C36.0252 12.1424 36.7257 11.3839 37.1551 10.4708C37.5844 9.55761 37.7216 8.53423 37.548 7.54022C37.3744 6.54621 36.8984 5.62997 36.1848 4.91645C35.4713 4.20294 34.5551 3.72689 33.5611 3.55326C32.5671 3.37962 31.5437 3.51683 30.6305 3.94619C29.7173 4.37554 28.9589 5.07614 28.4585 5.95242C27.9581 6.82869 27.7403 7.83798 27.8347 8.84262L27.8107 8.81729C27.8817 9.65714 27.7687 10.5024 27.4793 11.294C27.19 12.0856 26.7312 12.8046 26.1353 13.4006C25.5393 13.9965 24.8204 14.4553 24.0288 14.7446C23.2371 15.034 22.3919 15.147 21.552 15.076L21.576 15.1013C20.8623 15.0294 20.1413 15.117 19.4656 15.3578C18.7899 15.5985 18.176 15.9865 17.6685 16.4936C17.1611 17.0006 16.7727 17.6142 16.5313 18.2898C16.2901 18.9654 16.202 19.6861 16.2733 20.4L16.2493 20.376C16.32 21.2157 16.2065 22.0608 15.9171 22.8522C15.6275 23.6436 15.1688 24.3624 14.5729 24.9582C13.977 25.5541 13.2583 26.0128 12.4669 26.3024C11.6755 26.5918 10.8304 26.7053 9.99066 26.6346L10.0147 26.6586C9.01002 26.5642 8.00073 26.7821 7.12445 27.2825C6.24818 27.7829 5.54758 28.5413 5.11823 29.4545C4.68887 30.3677 4.55165 31.391 4.72529 32.385C4.89893 33.379 5.37498 34.2953 6.08849 35.0088C6.80201 35.7224 7.71825 36.1984 8.71226 36.372C9.70627 36.5456 10.7296 36.4084 11.6428 35.979C12.556 35.5497 13.3144 34.8492 13.8148 33.9729C14.3152 33.0965 14.5331 32.0873 14.4387 31.0826L14.464 31.1066C14.3931 30.2668 14.5064 29.4217 14.7959 28.6301C15.0852 27.8386 15.544 27.1198 16.1399 26.5238C16.7359 25.928 17.4547 25.4692 18.2461 25.1798C19.0377 24.8904 19.8828 24.777 20.7227 24.848Z" fill="#1D262B"/>
<path d="M11.7867 22.172C12.292 21.6637 12.6789 21.0501 12.9198 20.375C13.1606 19.7 13.2495 18.98 13.18 18.2666L13.2053 18.2906C13.1344 17.4506 13.2477 16.6052 13.5373 15.8134C13.8269 15.0217 14.2859 14.3028 14.8821 13.7068C15.4784 13.1108 16.1975 12.6521 16.9893 12.3629C17.7812 12.0736 18.6267 11.9607 19.4667 12.032L19.4413 12.008C20.4456 12.1021 21.4545 11.8841 22.3304 11.3837C23.2063 10.8834 23.9064 10.1251 24.3356 9.21227C24.7647 8.29939 24.9017 7.27639 24.7281 6.28275C24.5545 5.28911 24.0785 4.37321 23.3653 3.65996C22.6521 2.94671 21.7361 2.47081 20.7425 2.29719C19.7489 2.12355 18.7259 2.26064 17.8131 2.68973C16.9001 3.11883 16.1419 3.81905 15.6416 4.69492C15.1412 5.57079 14.9232 6.57967 15.0173 7.58396L14.9933 7.55996C15.0643 8.39976 14.9509 9.24492 14.6615 10.0364C14.372 10.828 13.9133 11.5468 13.3174 12.1427C12.7215 12.7387 12.0026 13.1974 11.2111 13.4868C10.4196 13.7762 9.57445 13.8896 8.73465 13.8186L8.75865 13.8426C7.93808 13.769 7.1122 13.9038 6.35756 14.2344C5.60292 14.5649 4.94392 15.0806 4.44164 15.7337C3.93936 16.3866 3.61005 17.156 3.48421 17.9701C3.35839 18.7844 3.44011 19.6172 3.7218 20.3913C4.00349 21.1656 4.47607 21.8561 5.09571 22.399C5.71535 22.9421 6.46201 23.3198 7.26652 23.4974C8.07101 23.6749 8.90732 23.6465 9.69795 23.4149C10.4886 23.1832 11.2079 22.7557 11.7893 22.172H11.7867Z" fill="#1D262B"/>
<path d="M53.0893 8.87329H57.0493V28.144H53.0893V8.87329Z" fill="#1D262B"/>
<path d="M59.292 21.5453C59.2865 20.1605 59.6921 18.8051 60.4575 17.6509C61.2228 16.4968 62.3135 15.5957 63.5913 15.062C64.8692 14.5281 66.2767 14.3856 67.6356 14.6524C68.9945 14.9192 70.2437 15.5832 71.2249 16.5605C72.2061 17.5377 72.8752 18.7843 73.1475 20.1421C73.4197 21.5 73.2828 22.9081 72.7541 24.1881C72.2255 25.468 71.3288 26.5624 70.1777 27.3323C69.0265 28.1023 67.6729 28.5133 66.288 28.5133C65.3688 28.5239 64.4567 28.3509 63.6049 28.0048C62.7532 27.6587 61.9791 27.1463 61.3277 26.4976C60.6763 25.8488 60.1608 25.0767 59.8113 24.2264C59.4617 23.3761 59.2852 22.4647 59.292 21.5453ZM69.324 21.5453C69.3075 20.9484 69.1153 20.3696 68.7717 19.8812C68.428 19.3929 67.948 19.0167 67.3917 18.7997C66.8353 18.5827 66.2275 18.5344 65.6439 18.6611C65.0603 18.7877 64.5269 19.0835 64.1105 19.5116C63.6943 19.9396 63.4132 20.4809 63.3029 21.0679C63.1925 21.6547 63.2575 22.2611 63.4899 22.8112C63.7223 23.3613 64.1116 23.8307 64.6092 24.1607C65.1069 24.4907 65.6909 24.6667 66.288 24.6667C66.6969 24.6776 67.1037 24.6036 67.4828 24.4495C67.8617 24.2953 68.2047 24.0644 68.4899 23.7712C68.7751 23.4779 68.9965 23.1287 69.14 22.7456C69.2836 22.3625 69.3463 21.9539 69.324 21.5453Z" fill="#1D262B"/>
<path d="M89.0667 14.9454V27.4787C89.0667 31.9134 85.608 33.788 82.0973 33.788C80.8613 33.8806 79.6236 33.6308 78.52 33.0664C77.4165 32.5019 76.4897 31.6444 75.8413 30.588L79.22 28.6347C79.4925 29.1854 79.9268 29.6396 80.4645 29.9368C81.0024 30.2339 81.6181 30.3598 82.2293 30.2974C82.62 30.3515 83.0179 30.3171 83.3935 30.1967C83.7689 30.0763 84.1127 29.873 84.3991 29.6019C84.6855 29.3307 84.9072 28.9987 85.048 28.6302C85.1887 28.2618 85.2447 27.8664 85.212 27.4734V26.2667C84.7483 26.834 84.1581 27.2848 83.4887 27.5828C82.8192 27.8808 82.0893 28.0178 81.3573 27.9827C79.6157 27.9278 77.9639 27.1974 76.7513 25.9459C75.5388 24.6946 74.8608 23.0204 74.8608 21.278C74.8608 19.5356 75.5388 17.8615 76.7513 16.6102C77.9639 15.3587 79.6157 14.6283 81.3573 14.5734C82.0893 14.5383 82.8192 14.6752 83.4887 14.9732C84.1581 15.2712 84.7483 15.722 85.212 16.2894V14.9427L89.0667 14.9454ZM85.2133 21.28C85.24 20.6419 85.0749 20.0103 84.7396 19.4667C84.4043 18.923 83.9139 18.4922 83.3316 18.2296C82.7493 17.967 82.1019 17.8847 81.4724 17.9932C80.8429 18.1018 80.2604 18.3962 79.7996 18.8387C79.3389 19.2811 79.0212 19.8512 78.8872 20.4758C78.7533 21.1003 78.8093 21.7507 79.0483 22.3431C79.2871 22.9355 79.6977 23.443 80.2273 23.8C80.7569 24.1571 81.3813 24.3475 82.02 24.3467C82.4361 24.3758 82.8536 24.3174 83.2457 24.1752C83.6379 24.0331 83.9959 23.8103 84.2967 23.5215C84.5975 23.2326 84.8345 22.8839 84.9924 22.4978C85.1503 22.1118 85.2256 21.697 85.2133 21.28Z" fill="#1D262B"/>
<path d="M91.3093 21.5453C91.3039 20.1605 91.7093 18.8051 92.4748 17.6509C93.2401 16.4968 94.3308 15.5957 95.6087 15.062C96.8865 14.5281 98.294 14.3856 99.6529 14.6524C101.012 14.9192 102.261 15.5832 103.242 16.5605C104.223 17.5377 104.893 18.7843 105.165 20.1421C105.437 21.5 105.3 22.9081 104.771 24.1881C104.243 25.468 103.346 26.5624 102.195 27.3323C101.044 28.1023 99.6903 28.5133 98.3053 28.5133C97.3861 28.5239 96.4739 28.3509 95.6223 28.0048C94.7705 27.6587 93.9964 27.1463 93.3451 26.4976C92.6936 25.8488 92.1781 25.0767 91.8287 24.2264C91.4791 23.3761 91.3025 22.4647 91.3093 21.5453ZM101.341 21.5453C101.325 20.9484 101.133 20.3696 100.789 19.8812C100.445 19.3929 99.9653 19.0167 99.4091 18.7997C98.8527 18.5827 98.2447 18.5344 97.6612 18.6611C97.0776 18.7877 96.5443 19.0835 96.1279 19.5116C95.7116 19.9396 95.4305 20.4809 95.3201 21.0679C95.2097 21.6547 95.2748 22.2611 95.5072 22.8112C95.7396 23.3613 96.1289 23.8307 96.6265 24.1607C97.1243 24.4907 97.7081 24.6667 98.3053 24.6667C98.7143 24.6776 99.1211 24.6036 99.5 24.4495C99.8791 24.2953 100.222 24.0644 100.507 23.7712C100.792 23.4779 101.014 23.1287 101.157 22.7456C101.301 22.3625 101.364 21.9539 101.341 21.5453Z" fill="#1D262B"/>
<path d="M107.148 11.408C107.148 10.9381 107.287 10.4787 107.548 10.088C107.809 9.69723 108.181 9.39268 108.615 9.21285C109.049 9.03301 109.527 8.98596 109.988 9.07764C110.448 9.16932 110.872 9.39561 111.204 9.72791C111.536 10.0602 111.763 10.4835 111.854 10.9445C111.946 11.4053 111.899 11.8831 111.719 12.3172C111.539 12.7514 111.235 13.1225 110.844 13.3836C110.453 13.6447 109.994 13.784 109.524 13.784C108.896 13.7777 108.295 13.5255 107.851 13.0812C107.407 12.6369 107.154 12.0362 107.148 11.408ZM107.548 14.9453H111.509V28.1453H107.543L107.548 14.9453Z" fill="#1D262B"/>
<path d="M128.608 21.5453C128.654 22.4177 128.527 23.2905 128.234 24.1136C127.941 24.9366 127.489 25.6937 126.902 26.3413C126.316 26.9888 125.607 27.5141 124.817 27.8869C124.027 28.2596 123.171 28.4725 122.299 28.5133C121.565 28.5533 120.831 28.4296 120.151 28.151C119.471 27.8724 118.862 27.446 118.367 26.9026V33.424H114.407V14.9453H118.367V16.1853C118.862 15.6424 119.471 15.2162 120.151 14.938C120.832 14.6596 121.565 14.536 122.299 14.576C123.171 14.6166 124.028 14.8294 124.818 15.2022C125.608 15.575 126.317 16.1004 126.903 16.7481C127.49 17.3958 127.942 18.1532 128.235 18.9765C128.527 19.7997 128.654 20.6728 128.608 21.5453ZM124.648 21.5453C124.633 20.9276 124.435 20.3281 124.081 19.8218C123.726 19.3157 123.23 18.9253 122.655 18.6997C122.08 18.474 121.451 18.4229 120.847 18.553C120.242 18.683 119.69 18.9884 119.259 19.4308C118.827 19.8733 118.536 20.433 118.421 21.0404C118.306 21.6476 118.373 22.275 118.613 22.8445C118.853 23.414 119.256 23.8998 119.771 24.2416C120.286 24.5832 120.89 24.7654 121.508 24.7653C121.932 24.7842 122.356 24.7132 122.751 24.5569C123.145 24.4008 123.503 24.1628 123.799 23.8588C124.096 23.5546 124.325 23.1914 124.471 22.7928C124.617 22.3941 124.678 21.9689 124.648 21.5453Z" fill="#1D262B"/>
<path d="M140.828 24.184C140.828 27.22 138.189 28.5133 135.339 28.5133C134.187 28.6176 133.03 28.3741 132.018 27.814C131.007 27.254 130.186 26.4033 129.663 25.372L133.093 23.4187C133.232 23.8953 133.53 24.3101 133.938 24.5935C134.345 24.8769 134.839 25.012 135.333 24.976C136.283 24.976 136.759 24.6853 136.759 24.1587C136.759 22.7053 130.264 23.472 130.264 18.9053C130.264 16.0267 132.693 14.576 135.439 14.576C136.471 14.5433 137.492 14.7881 138.397 15.2848C139.303 15.7816 140.059 16.512 140.585 17.4L137.207 19.2213C137.059 18.8756 136.812 18.5811 136.497 18.3745C136.183 18.168 135.815 18.0587 135.439 18.06C134.752 18.06 134.329 18.3267 134.329 18.7987C134.335 20.304 140.828 19.3 140.828 24.184Z" fill="#1D262B"/>
<path d="M155.293 14.9453V28.1453H151.333V26.904C150.876 27.4517 150.296 27.8833 149.64 28.1633C148.984 28.4433 148.272 28.5637 147.56 28.5146C144.893 28.5146 142.627 26.6146 142.627 23.048V14.9453H146.587V22.468C146.553 22.7824 146.589 23.1002 146.692 23.3993C146.793 23.6985 146.96 23.9718 147.179 24.2002C147.397 24.4286 147.663 24.6066 147.957 24.722C148.251 24.8373 148.567 24.8872 148.883 24.868C150.335 24.868 151.337 24.024 151.337 22.1493V14.9493L155.293 14.9453Z" fill="#1D262B"/>
<path d="M178 20.04V28.144H174.04V20.3826C174.04 19.0626 173.407 18.2186 172.14 18.2186C170.82 18.2186 170.08 19.1426 170.08 20.7V28.144H166.121V20.3826C166.121 19.0626 165.488 18.2186 164.22 18.2186C162.9 18.2186 162.161 19.1426 162.161 20.7V28.144H158.201V14.944H162.161V16.1573C162.572 15.619 163.111 15.1921 163.728 14.9157C164.347 14.6392 165.024 14.522 165.699 14.5746C166.376 14.5414 167.051 14.6845 167.657 14.9897C168.263 15.2948 168.779 15.7518 169.156 16.316C169.595 15.7257 170.176 15.2564 170.845 14.9518C171.515 14.6473 172.251 14.5176 172.984 14.5746C176.015 14.576 178 16.74 178 20.04Z" fill="#1D262B"/>
<path d="M181.349 14.864C182.972 14.864 184.288 13.5483 184.288 11.9254C184.288 10.3024 182.972 8.98669 181.349 8.98669C179.727 8.98669 178.411 10.3024 178.411 11.9254C178.411 13.5483 179.727 14.864 181.349 14.864Z" fill="#1D262B"/>
</svg>
